<svg xmlns="http://www.w3.org/2000/svg" xmlns:xlink= "http://www.w3.org/1999/xlink" width="632" zoomAndPan="magnify"
     viewBox="0 0 474 215.249992" height="287" preserveAspectRatio="xMidYMid meet" version="1.0">
    <defs>
        <clipPath id="f7cbc82352">
            <path d="M 10 3 L 460.574219 3 L 460.574219 208 L 10 208 Z M 10 3 " clip-rule="nonzero"/>
        </clipPath>
    </defs>
    <g clip-path="url(#f7cbc82352)">
        <path fill="#666666"
              d="M 113.097656 3.445312 C 112.140625 3.972656 108.863281 7.273438 108.390625 8.1875 C 108.167969 8.609375 107.863281 8.960938 107.714844 8.960938 C 107.566406 8.960938 107.128906 9.433594 106.742188 10.011719 C 106.355469 10.59375 105.402344 11.824219 104.628906 12.753906 C 103.859375 13.679688 103.074219 14.753906 102.890625 15.140625 C 102.703125 15.527344 102.105469 16.378906 101.558594 17.035156 L 99.652344 19.316406 C 99.148438 19.917969 98.738281 20.546875 98.738281 20.71875 C 98.738281 20.886719 98.386719 21.441406 97.957031 21.945312 C 97.527344 22.453125 96.835938 23.394531 96.425781 24.039062 C 96.015625 24.683594 95.386719 25.523438 95.03125 25.90625 C 94.675781 26.292969 93.945312 27.265625 93.40625 28.0625 C 92.867188 28.863281 91.820312 30.347656 91.089844 31.363281 C 90.355469 32.375 89.753906 33.371094 89.753906 33.578125 C 89.753906 33.78125 89.527344 34.070312 89.246094 34.222656 C 88.96875 34.371094 88.496094 34.980469 88.195312 35.566406 C 87.894531 36.160156 87.289062 37.074219 86.84375 37.597656 C 86.40625 38.125 85.921875 38.90625 85.773438 39.335938 C 85.621094 39.765625 85.195312 40.316406 84.820312 40.5625 C 84.445312 40.808594 84.136719 41.183594 84.136719 41.394531 C 84.136719 41.609375 83.667969 42.421875 83.085938 43.203125 C 82.507812 43.984375 81.8125 44.972656 81.539062 45.410156 C 81.269531 45.839844 80.539062 46.957031 79.925781 47.882812 C 79.3125 48.808594 78.429688 50.203125 77.972656 50.980469 C 77.511719 51.761719 76.890625 52.660156 76.59375 52.980469 C 76.296875 53.300781 75.769531 54.121094 75.425781 54.796875 C 75.082031 55.476562 74.4375 56.449219 73.996094 56.953125 C 73.550781 57.464844 73.191406 58.042969 73.191406 58.246094 C 73.191406 58.449219 72.921875 58.855469 72.589844 59.148438 C 72.257812 59.445312 71.757812 60.203125 71.472656 60.832031 C 71.195312 61.460938 70.636719 62.328125 70.238281 62.757812 C 69.839844 63.183594 69.324219 64.015625 69.089844 64.59375 C 68.859375 65.179688 68.359375 65.921875 67.984375 66.25 C 67.601562 66.582031 67.292969 67.074219 67.292969 67.347656 C 67.292969 67.621094 66.933594 68.289062 66.496094 68.824219 C 66.050781 69.363281 65.421875 70.332031 65.09375 70.976562 C 64.765625 71.625 64.382812 72.222656 64.242188 72.308594 C 64.105469 72.398438 63.648438 73.132812 63.226562 73.945312 C 62.808594 74.761719 62.238281 75.675781 61.960938 75.984375 C 61.6875 76.296875 61.179688 77.121094 60.832031 77.816406 C 60.484375 78.511719 59.957031 79.394531 59.664062 79.777344 C 58.605469 81.175781 57.101562 83.597656 56.601562 84.714844 C 56.316406 85.34375 55.820312 86.097656 55.492188 86.394531 C 55.164062 86.695312 54.71875 87.359375 54.503906 87.878906 C 54.289062 88.398438 53.800781 89.191406 53.429688 89.636719 C 53.054688 90.082031 52.667969 90.8125 52.566406 91.257812 C 52.46875 91.703125 52.015625 92.425781 51.5625 92.859375 C 51.105469 93.300781 50.734375 93.835938 50.734375 94.058594 C 50.734375 94.554688 49.582031 96.644531 49.308594 96.644531 C 49.199219 96.644531 48.898438 97.179688 48.632812 97.839844 C 48.371094 98.492188 47.660156 99.773438 47.058594 100.679688 C 46.453125 101.585938 45.960938 102.488281 45.960938 102.683594 C 45.960938 102.878906 45.757812 103.207031 45.507812 103.414062 C 45.261719 103.621094 44.691406 104.542969 44.242188 105.472656 C 43.796875 106.394531 43.195312 107.414062 42.914062 107.730469 C 42.632812 108.042969 42.238281 108.722656 42.035156 109.226562 C 41.839844 109.738281 41.3125 110.609375 40.867188 111.164062 C 40.425781 111.722656 39.917969 112.667969 39.738281 113.261719 C 39.558594 113.859375 39.332031 114.347656 39.230469 114.347656 C 38.964844 114.347656 37.820312 116.453125 37.820312 116.945312 C 37.820312 117.175781 37.441406 117.839844 36.980469 118.417969 C 36.519531 119 36.019531 119.921875 35.871094 120.464844 C 35.71875 121.007812 35.347656 121.722656 35.046875 122.046875 C 34.742188 122.371094 34.21875 123.335938 33.890625 124.183594 C 33.558594 125.035156 33.054688 125.984375 32.765625 126.292969 C 32.480469 126.601562 31.976562 127.570312 31.65625 128.445312 C 31.328125 129.320312 30.882812 130.183594 30.664062 130.363281 C 30.445312 130.546875 30.066406 131.308594 29.8125 132.0625 C 29.566406 132.816406 29.035156 133.914062 28.636719 134.503906 C 28.238281 135.085938 27.722656 136.136719 27.488281 136.832031 C 27.253906 137.527344 26.765625 138.535156 26.410156 139.070312 C 26.046875 139.609375 25.542969 140.683594 25.285156 141.460938 C 25.023438 142.238281 24.53125 143.316406 24.179688 143.859375 C 23.832031 144.398438 23.390625 145.410156 23.195312 146.105469 C 23.003906 146.800781 22.628906 147.621094 22.367188 147.929688 C 21.636719 148.785156 21.289062 149.578125 20.960938 151.113281 C 20.792969 151.886719 20.421875 152.730469 20.128906 152.992188 C 19.839844 153.261719 19.457031 154.1875 19.277344 155.0625 C 19.101562 155.933594 18.605469 157.214844 18.167969 157.910156 C 17.734375 158.605469 17.234375 159.878906 17.0625 160.742188 C 16.886719 161.605469 16.476562 162.804688 16.148438 163.414062 C 15.820312 164.019531 15.320312 165.386719 15.039062 166.453125 C 14.753906 167.519531 14.214844 169.164062 13.839844 170.109375 C 13.464844 171.046875 13.019531 172.644531 12.847656 173.648438 C 12.675781 174.652344 12.359375 175.980469 12.148438 176.597656 C 10.769531 180.570312 10.117188 188.039062 10.613281 194.230469 C 10.933594 198.222656 11.03125 198.609375 12.105469 200.191406 C 12.503906 200.785156 12.832031 201.507812 12.832031 201.804688 C 12.832031 202.824219 16.289062 205.71875 18.988281 206.945312 C 20.738281 207.742188 23.6875 208.015625 28.371094 207.804688 C 32.871094 207.605469 34.527344 207.289062 36.542969 206.253906 C 37.15625 205.941406 37.859375 205.6875 38.109375 205.6875 C 38.820312 205.6875 41.28125 204.808594 41.78125 204.375 C 42.027344 204.160156 42.960938 203.730469 43.855469 203.414062 C 44.75 203.101562 45.875 202.546875 46.351562 202.183594 C 46.832031 201.816406 47.753906 201.382812 48.40625 201.207031 C 49.050781 201.035156 49.957031 200.578125 50.410156 200.199219 C 50.863281 199.816406 51.363281 199.503906 51.515625 199.503906 C 51.667969 199.503906 52.546875 199 53.472656 198.378906 C 54.398438 197.757812 55.28125 197.253906 55.433594 197.253906 C 55.585938 197.253906 56.191406 196.871094 56.78125 196.402344 C 57.371094 195.933594 58.363281 195.304688 58.996094 195 C 59.625 194.699219 60.894531 193.878906 61.820312 193.1875 C 62.746094 192.492188 64.074219 191.554688 64.769531 191.101562 C 65.464844 190.648438 66.414062 189.96875 66.875 189.589844 C 67.339844 189.214844 68.035156 188.742188 68.417969 188.539062 C 68.804688 188.335938 69.289062 187.941406 69.488281 187.648438 C 69.691406 187.363281 70.324219 186.890625 70.894531 186.601562 C 71.460938 186.308594 72.234375 185.742188 72.609375 185.339844 C 72.984375 184.9375 73.453125 184.605469 73.652344 184.605469 C 73.851562 184.605469 74.453125 184.199219 74.992188 183.695312 C 75.527344 183.195312 76.675781 182.210938 77.546875 181.515625 C 78.414062 180.820312 79.546875 179.871094 80.058594 179.410156 C 80.574219 178.945312 81.847656 177.933594 82.890625 177.160156 C 83.933594 176.386719 85.234375 175.34375 85.785156 174.84375 C 86.335938 174.339844 86.875 173.925781 86.992188 173.925781 C 87.105469 173.925781 87.550781 173.566406 87.988281 173.128906 C 89.011719 172.078125 95.039062 166.792969 98.597656 163.824219 C 101.214844 161.632812 101.867188 161.058594 104.605469 158.472656 C 105.175781 157.929688 106.695312 156.539062 107.972656 155.382812 C 109.25 154.222656 111.179688 152.417969 112.25 151.375 C 113.320312 150.332031 114.296875 149.476562 114.417969 149.476562 C 114.539062 149.476562 115.015625 149.070312 115.476562 148.5625 C 115.941406 148.0625 117.191406 146.894531 118.261719 145.96875 C 119.328125 145.035156 120.597656 143.898438 121.078125 143.4375 C 121.5625 142.972656 122.949219 141.707031 124.164062 140.625 C 125.382812 139.542969 126.90625 138.152344 127.554688 137.535156 C 128.203125 136.917969 129.644531 135.589844 130.757812 134.585938 C 131.871094 133.582031 133.261719 132.316406 133.84375 131.773438 C 134.957031 130.742188 135.625 130.144531 137.824219 128.210938 C 139.074219 127.113281 139.21875 127.054688 140.152344 127.3125 C 140.730469 127.472656 141.609375 128.09375 142.253906 128.792969 C 144.21875 130.929688 146.839844 131.34375 152.925781 130.492188 C 155.40625 130.148438 156.316406 129.890625 157.386719 129.226562 C 158.128906 128.773438 158.933594 128.398438 159.179688 128.398438 C 159.734375 128.398438 164.921875 125.710938 165.691406 125.023438 C 166 124.75 166.777344 124.441406 167.421875 124.332031 C 168.921875 124.089844 169.09375 124.53125 168.496094 127.105469 C 168.070312 128.945312 168.074219 129.03125 168.785156 131.28125 C 169.183594 132.542969 169.648438 133.742188 169.816406 133.941406 C 170.261719 134.480469 172.53125 135.425781 173.378906 135.425781 C 174.160156 135.425781 177.78125 134.71875 178.644531 134.394531 C 180.003906 133.886719 185.886719 128.253906 186.21875 127.132812 C 186.3125 126.824219 186.648438 126.289062 186.964844 125.949219 C 187.28125 125.601562 187.765625 124.660156 188.050781 123.859375 C 188.601562 122.296875 189.363281 121.3125 190.621094 120.527344 C 191.378906 120.058594 191.488281 120.0625 193.105469 120.566406 C 195.167969 121.207031 197.386719 121.238281 199.398438 120.65625 C 200.226562 120.414062 202.058594 120.121094 203.46875 120.011719 C 205.894531 119.816406 206.050781 119.835938 206.25 120.378906 C 206.402344 120.789062 206.28125 121.175781 205.824219 121.71875 C 205.46875 122.136719 205.03125 122.960938 204.84375 123.542969 C 204.660156 124.128906 204.210938 124.925781 203.847656 125.3125 C 203.488281 125.703125 202.992188 126.582031 202.746094 127.273438 C 202.507812 127.960938 202.078125 128.78125 201.796875 129.09375 C 201.511719 129.40625 200.957031 130.390625 200.558594 131.28125 C 200.15625 132.171875 199.699219 132.894531 199.539062 132.894531 C 199.378906 132.894531 199.167969 133.246094 199.0625 133.667969 C 198.808594 134.738281 198.207031 135.878906 197.589844 136.46875 C 197.300781 136.746094 196.921875 137.425781 196.742188 137.980469 C 196.5625 138.535156 196.097656 139.421875 195.699219 139.949219 C 195.304688 140.476562 194.671875 141.539062 194.292969 142.308594 C 193.914062 143.085938 193.042969 144.664062 192.359375 145.824219 C 191.675781 146.980469 190.730469 148.722656 190.261719 149.691406 C 189.792969 150.652344 189.300781 151.445312 189.164062 151.445312 C 189.035156 151.445312 188.601562 152.199219 188.203125 153.117188 C 187.804688 154.039062 187.222656 155.042969 186.914062 155.351562 C 186.605469 155.660156 186.222656 156.402344 186.0625 157 C 185.898438 157.597656 185.449219 158.386719 185.0625 158.75 C 184.671875 159.121094 184.230469 159.875 184.082031 160.433594 C 183.929688 160.992188 183.570312 161.703125 183.277344 162.015625 C 182.984375 162.332031 182.472656 163.210938 182.136719 163.96875 C 181.800781 164.730469 181.300781 165.601562 181.027344 165.914062 C 180.75 166.226562 180.296875 167.097656 180.019531 167.851562 C 179.738281 168.609375 179.300781 169.441406 179.039062 169.703125 C 178.777344 169.960938 178.164062 170.988281 177.667969 171.980469 C 177.171875 172.976562 176.203125 174.738281 175.507812 175.894531 C 174.816406 177.054688 173.945312 178.640625 173.578125 179.421875 C 173.210938 180.199219 172.722656 180.992188 172.496094 181.179688 C 172.269531 181.371094 171.859375 182.121094 171.589844 182.855469 C 171.3125 183.585938 170.808594 184.503906 170.460938 184.890625 C 170.113281 185.277344 169.664062 186.097656 169.457031 186.714844 C 169.253906 187.332031 168.800781 188.160156 168.453125 188.546875 C 168.105469 188.9375 167.621094 189.816406 167.375 190.511719 C 167.132812 191.203125 166.636719 192.082031 166.273438 192.472656 C 165.914062 192.859375 165.460938 193.671875 165.269531 194.269531 C 165.078125 194.875 164.621094 195.808594 164.253906 196.351562 C 163.375 197.648438 162.941406 199.296875 162.976562 201.1875 C 163.019531 203.175781 163.4375 203.519531 165.621094 203.371094 C 167.429688 203.25 168.578125 202.429688 169.234375 200.804688 C 169.433594 200.324219 169.929688 199.480469 170.34375 198.941406 C 170.757812 198.398438 171.242188 197.519531 171.417969 196.980469 C 171.597656 196.445312 172.039062 195.6875 172.402344 195.296875 C 172.765625 194.90625 173.207031 194.144531 173.378906 193.601562 C 173.546875 193.0625 174.132812 191.992188 174.675781 191.234375 C 175.214844 190.472656 175.65625 189.703125 175.65625 189.523438 C 175.65625 189.347656 176.046875 188.613281 176.519531 187.898438 C 177.476562 186.453125 178.605469 184.414062 179.726562 182.097656 C 180.136719 181.253906 180.777344 180.203125 181.152344 179.757812 C 181.527344 179.308594 181.832031 178.777344 181.832031 178.578125 C 181.832031 178.371094 182.253906 177.589844 182.769531 176.839844 C 183.28125 176.089844 183.84375 175.066406 184.015625 174.5625 C 184.1875 174.066406 184.699219 173.175781 185.152344 172.597656 C 185.605469 172.015625 186.054688 171.199219 186.152344 170.789062 C 186.246094 170.375 186.617188 169.679688 186.976562 169.246094 C 187.335938 168.804688 187.796875 168.007812 188.003906 167.464844 C 188.210938 166.921875 188.65625 166.164062 188.992188 165.777344 C 189.332031 165.390625 189.832031 164.503906 190.09375 163.808594 C 190.363281 163.113281 190.8125 162.292969 191.097656 161.984375 C 191.382812 161.675781 191.925781 160.726562 192.308594 159.878906 C 192.691406 159.027344 193.328125 157.894531 193.734375 157.363281 C 194.136719 156.832031 194.46875 156.261719 194.46875 156.097656 C 194.46875 155.9375 194.855469 155.234375 195.328125 154.535156 C 195.796875 153.839844 196.503906 152.640625 196.890625 151.867188 C 198.175781 149.304688 199.140625 147.601562 199.863281 146.636719 C 200.253906 146.113281 200.722656 145.226562 200.898438 144.664062 C 201.078125 144.101562 201.476562 143.414062 201.785156 143.136719 C 202.09375 142.855469 202.578125 142.113281 202.859375 141.484375 C 203.136719 140.859375 203.640625 140.105469 203.972656 139.8125 C 204.300781 139.511719 204.574219 139.113281 204.574219 138.921875 C 204.574219 138.492188 208.832031 133.667969 210.828125 131.84375 C 211.628906 131.109375 213.191406 129.621094 214.304688 128.539062 C 215.417969 127.457031 216.808594 126.191406 217.398438 125.730469 C 218.617188 124.769531 220.578125 123.8125 220.828125 124.0625 C 220.914062 124.152344 220.992188 125.203125 220.996094 126.402344 C 221.003906 129.847656 221.90625 130.738281 225.355469 130.703125 C 227.980469 130.671875 229.75 130.195312 231.222656 129.128906 C 231.929688 128.617188 232.648438 128.144531 232.828125 128.085938 C 233.296875 127.929688 236.015625 125.332031 236.015625 125.039062 C 236.015625 124.902344 236.457031 124.375 236.996094 123.863281 C 237.535156 123.355469 237.980469 122.800781 237.980469 122.632812 C 237.980469 121.945312 240.179688 120.199219 241.378906 119.933594 C 242.058594 119.785156 243.082031 119.347656 243.664062 118.96875 C 244.238281 118.589844 245.378906 118.144531 246.1875 117.980469 C 247 117.816406 248.261719 117.476562 248.992188 117.230469 C 249.722656 116.976562 250.402344 116.851562 250.5 116.953125 C 250.601562 117.054688 250.699219 117.640625 250.714844 118.257812 C 250.734375 119.105469 250.566406 119.570312 250.007812 120.167969 C 249.453125 120.757812 249.054688 121.824219 248.398438 124.484375 C 247.917969 126.425781 247.523438 128.394531 247.523438 128.855469 C 247.523438 129.316406 247.886719 130.691406 248.332031 131.90625 C 249.097656 134.011719 249.199219 134.148438 250.488281 134.773438 C 252.09375 135.546875 252.660156 135.570312 255.566406 134.972656 C 257.867188 134.5 259.3125 133.914062 259.3125 133.457031 C 259.3125 133.3125 259.664062 133.011719 260.085938 132.789062 C 261.417969 132.09375 265.773438 127.460938 265.773438 126.738281 C 265.773438 126.472656 266.074219 125.964844 266.445312 125.617188 C 266.816406 125.265625 267.257812 124.457031 267.425781 123.808594 C 267.789062 122.425781 267.820312 122.375 269.335938 121.039062 L 270.511719 120 L 272.421875 120.546875 C 274.695312 121.199219 276.585938 121.234375 278.6875 120.671875 C 279.535156 120.441406 281.019531 120.175781 281.988281 120.074219 C 283.4375 119.921875 283.84375 119.976562 284.285156 120.378906 C 284.714844 120.765625 284.773438 121.011719 284.566406 121.5625 C 284.421875 121.941406 284.300781 122.511719 284.300781 122.824219 C 284.300781 123.132812 283.914062 124.355469 283.441406 125.539062 C 282.191406 128.664062 282.234375 130.644531 283.589844 132.882812 C 284.152344 133.808594 284.882812 134.640625 285.222656 134.75 C 285.566406 134.851562 286.144531 135.175781 286.511719 135.464844 C 287.433594 136.183594 290.570312 136.175781 292.691406 135.453125 C 293.558594 135.15625 294.988281 134.769531 295.863281 134.59375 C 296.746094 134.414062 297.917969 133.964844 298.464844 133.589844 C 299.015625 133.214844 300.148438 132.714844 300.980469 132.46875 C 301.816406 132.226562 302.65625 131.839844 302.84375 131.613281 C 303.035156 131.382812 303.960938 130.816406 304.902344 130.351562 C 305.847656 129.890625 307.035156 129.226562 307.542969 128.886719 C 309.972656 127.246094 311.191406 126.480469 312.089844 126.023438 C 312.632812 125.75 313.394531 125.226562 313.785156 124.863281 C 314.371094 124.316406 314.683594 124.230469 315.570312 124.375 C 316.453125 124.519531 316.71875 124.71875 317.035156 125.484375 C 317.253906 125.996094 317.425781 126.675781 317.425781 126.996094 C 317.425781 127.953125 319.96875 130.238281 321.449219 130.609375 C 323.132812 131.03125 325.929688 131.003906 329.21875 130.523438 C 332.136719 130.097656 332.660156 129.949219 333.710938 129.234375 C 334.097656 128.976562 335.078125 128.539062 335.890625 128.273438 C 337.378906 127.785156 339.234375 126.789062 342.148438 124.910156 C 343.007812 124.355469 343.867188 123.90625 344.058594 123.90625 C 344.246094 123.90625 344.722656 123.554688 345.117188 123.136719 C 345.808594 122.382812 345.84375 122.378906 346.226562 122.90625 C 346.820312 123.714844 346.707031 125.054688 345.902344 126.8125 C 345.324219 128.074219 345.175781 128.851562 345.15625 130.710938 C 345.128906 132.972656 345.15625 133.082031 346.226562 134.640625 C 346.832031 135.523438 347.515625 136.320312 347.746094 136.421875 C 348.613281 136.789062 352.476562 136.882812 355.253906 136.601562 C 357.433594 136.382812 358.339844 136.160156 358.988281 135.695312 C 359.460938 135.359375 360.613281 134.851562 361.550781 134.566406 C 362.492188 134.285156 363.527344 133.808594 363.855469 133.507812 C 364.179688 133.210938 365.113281 132.75 365.925781 132.488281 C 366.738281 132.222656 367.519531 131.785156 367.664062 131.511719 C 367.808594 131.242188 368.660156 130.675781 369.558594 130.253906 C 370.453125 129.835938 371.582031 129.214844 372.066406 128.875 C 372.621094 128.492188 373.183594 128.125 373.75 127.765625 C 374.195312 127.5 374.988281 126.957031 375.523438 126.566406 C 376.054688 126.175781 376.8125 125.78125 377.207031 125.6875 C 377.601562 125.59375 378.210938 125.253906 378.558594 124.941406 C 379.058594 124.484375 379.269531 124.433594 379.539062 124.703125 C 379.804688 124.972656 379.738281 125.433594 379.230469 126.863281 C 378.769531 128.136719 378.570312 129.324219 378.554688 130.859375 C 378.539062 132.945312 378.585938 133.105469 379.632812 134.640625 C 380.238281 135.523438 380.921875 136.320312 381.152344 136.421875 C 382.019531 136.789062 385.878906 136.882812 388.660156 136.601562 C 390.839844 136.382812 391.746094 136.160156 392.394531 135.695312 C 392.867188 135.359375 394.023438 134.851562 394.960938 134.566406 C 395.898438 134.285156 396.929688 133.808594 397.261719 133.507812 C 397.589844 133.210938 398.507812 132.753906 399.304688 132.496094 C 400.101562 132.238281 400.824219 131.835938 400.914062 131.609375 C 401.003906 131.378906 401.835938 130.832031 402.765625 130.390625 C 403.695312 129.949219 404.660156 129.417969 404.914062 129.207031 C 405.167969 128.992188 405.90625 128.507812 406.5625 128.121094 C 407.210938 127.734375 408.359375 127.003906 409.109375 126.5 C 410.453125 125.589844 410.46875 125.585938 411.015625 126.132812 C 411.40625 126.523438 411.550781 127.023438 411.519531 127.859375 C 411.492188 128.507812 411.605469 129.875 411.761719 130.898438 C 412.007812 132.496094 412.199219 132.898438 413.105469 133.773438 C 414.488281 135.109375 416.441406 135.570312 418.878906 135.132812 C 420.691406 134.808594 423.261719 133.800781 423.261719 133.417969 C 423.261719 133.289062 423.738281 132.941406 424.3125 132.640625 C 424.894531 132.335938 426.058594 131.25 426.910156 130.226562 C 427.757812 129.203125 428.722656 128.089844 429.046875 127.75 C 429.734375 127.039062 430.558594 125.507812 430.558594 124.953125 C 430.558594 124.742188 430.847656 124.269531 431.191406 123.898438 C 431.542969 123.53125 432.085938 122.589844 432.398438 121.808594 C 433.089844 120.117188 433.625 119.96875 436.574219 120.65625 C 438.757812 121.164062 440.410156 121.210938 441.792969 120.808594 C 442.332031 120.652344 444.011719 120.332031 445.53125 120.101562 C 447.046875 119.871094 448.675781 119.460938 449.148438 119.191406 C 449.628906 118.917969 450.117188 118.636719 450.601562 118.355469 C 450.929688 118.164062 451.449219 118.007812 451.757812 118.003906 C 452.066406 117.996094 452.820312 117.683594 453.441406 117.308594 C 454.058594 116.925781 455.199219 116.296875 455.984375 115.898438 C 457.671875 115.039062 459.96875 112.90625 460.707031 111.507812 C 461.460938 110.082031 461.152344 108.605469 459.953125 107.875 C 458.675781 107.09375 456.976562 107.15625 455.800781 108.023438 C 455.273438 108.410156 454.28125 108.996094 453.597656 109.324219 C 452.914062 109.65625 451.851562 110.289062 451.242188 110.730469 C 450.628906 111.171875 450.027344 111.539062 449.90625 111.539062 C 449.78125 111.539062 448.941406 111.96875 448.042969 112.496094 C 446.6875 113.296875 445.929688 113.515625 443.585938 113.800781 C 442.007812 113.992188 440.058594 114.054688 439.179688 113.945312 C 437.699219 113.761719 437.515625 113.648438 436.214844 112.144531 C 435.335938 111.132812 434.675781 110.03125 434.421875 109.15625 C 434.199219 108.394531 433.84375 107.675781 433.625 107.558594 C 432.28125 106.828125 430 105.917969 429.527344 105.917969 C 429.21875 105.917969 428.28125 106.152344 427.449219 106.4375 C 426.609375 106.722656 425.324219 107.050781 424.585938 107.160156 C 423.683594 107.292969 422.917969 107.640625 422.273438 108.207031 C 421.183594 109.167969 420.296875 109.832031 417.574219 111.710938 C 416.535156 112.433594 415.683594 113.125 415.683594 113.246094 C 415.683594 113.367188 415.421875 113.550781 415.105469 113.648438 C 414.789062 113.75 414.179688 114.171875 413.75 114.582031 C 412.8125 115.484375 410.601562 117.117188 409.429688 117.777344 C 408.964844 118.039062 408.183594 118.636719 407.695312 119.109375 C 407.207031 119.582031 406.664062 119.96875 406.484375 119.96875 C 406.304688 119.96875 405.738281 120.335938 405.234375 120.78125 C 404.730469 121.222656 403.808594 121.800781 403.191406 122.058594 C 402.578125 122.3125 401.820312 122.757812 401.507812 123.042969 C 401.199219 123.324219 400.5 123.773438 399.960938 124.042969 C 399.421875 124.3125 398.726562 124.75 398.417969 125.019531 C 398.109375 125.285156 397.289062 125.722656 396.59375 125.992188 C 395.898438 126.261719 394.917969 126.792969 394.421875 127.171875 C 393.921875 127.550781 392.980469 128.050781 392.324219 128.28125 C 391.671875 128.511719 390.628906 128.992188 390.003906 129.355469 C 388.34375 130.3125 387.511719 130.4375 386.21875 129.917969 C 385.089844 129.464844 384.835938 129.144531 385.355469 128.828125 C 385.503906 128.734375 385.882812 127.796875 386.195312 126.738281 C 386.511719 125.683594 387.003906 124.519531 387.292969 124.152344 C 387.578125 123.78125 388.101562 122.824219 388.445312 122.015625 C 388.792969 121.207031 389.253906 120.402344 389.46875 120.222656 C 389.683594 120.039062 390.246094 119.089844 390.714844 118.105469 C 391.183594 117.121094 391.667969 116.316406 391.789062 116.316406 C 391.90625 116.316406 392.367188 115.621094 392.816406 114.769531 C 393.257812 113.917969 393.730469 113.222656 393.859375 113.222656 C 393.992188 113.222656 394.355469 112.636719 394.671875 111.925781 C 394.988281 111.210938 395.675781 110.0625 396.199219 109.371094 C 396.722656 108.683594 397.15625 107.964844 397.15625 107.765625 C 397.15625 107.570312 397.425781 107.167969 397.757812 106.871094 C 398.085938 106.578125 398.644531 105.691406 399 104.902344 C 399.351562 104.109375 399.835938 103.386719 400.074219 103.296875 C 400.3125 103.207031 400.707031 102.65625 400.945312 102.066406 C 401.472656 100.816406 402.332031 99.835938 403.390625 99.285156 C 403.949219 98.992188 406.253906 98.8125 412.089844 98.609375 C 423.507812 98.210938 428.792969 97.542969 429.855469 96.363281 C 430.582031 95.566406 430.324219 93.605469 429.40625 92.921875 C 428.246094 92.058594 424.773438 91.796875 417.226562 92 C 413.523438 92.105469 410.269531 92.101562 409.996094 91.996094 C 409.625 91.851562 409.507812 91.480469 409.507812 90.492188 C 409.507812 89.402344 409.691406 88.933594 410.609375 87.707031 C 411.222656 86.898438 411.804688 85.957031 411.914062 85.617188 C 412.019531 85.277344 412.386719 84.777344 412.734375 84.507812 C 413.078125 84.234375 413.527344 83.597656 413.730469 83.09375 C 413.929688 82.582031 414.457031 81.753906 414.890625 81.246094 C 415.324219 80.738281 415.683594 80.160156 415.683594 79.960938 C 415.683594 79.765625 416.125 79.082031 416.664062 78.449219 C 417.203125 77.820312 417.644531 77.167969 417.644531 77.003906 C 417.644531 76.839844 418.011719 76.292969 418.453125 75.785156 C 418.894531 75.277344 419.511719 74.355469 419.828125 73.738281 C 420.140625 73.121094 420.726562 72.304688 421.128906 71.933594 C 421.53125 71.558594 421.859375 71.148438 421.859375 71.023438 C 421.859375 70.746094 424.085938 67.335938 425.042969 66.148438 C 425.414062 65.683594 426 64.800781 426.347656 64.183594 C 426.6875 63.566406 427.1875 62.855469 427.453125 62.601562 C 427.722656 62.347656 428.109375 61.714844 428.316406 61.195312 C 428.527344 60.675781 429.117188 59.773438 429.628906 59.195312 C 430.144531 58.613281 430.558594 58 430.558594 57.832031 C 430.558594 57.664062 431.003906 57.011719 431.542969 56.378906 C 432.085938 55.746094 432.527344 55.058594 432.527344 54.847656 C 432.527344 54.632812 432.84375 54.144531 433.230469 53.757812 C 433.617188 53.371094 434.171875 52.578125 434.472656 51.992188 C 434.769531 51.414062 435.21875 50.761719 435.476562 50.554688 C 435.726562 50.339844 436.195312 49.652344 436.515625 49.023438 C 436.832031 48.394531 437.402344 47.503906 437.777344 47.039062 C 438.152344 46.578125 438.761719 45.753906 439.128906 45.210938 C 439.800781 44.234375 440.472656 43.253906 441.144531 42.28125 C 441.886719 41.207031 442.699219 39.988281 442.957031 39.578125 C 443.210938 39.160156 443.875 38.226562 444.433594 37.5 C 444.988281 36.773438 445.441406 36.082031 445.441406 35.96875 C 445.441406 35.851562 445.820312 35.332031 446.28125 34.816406 C 446.746094 34.292969 447.125 33.707031 447.125 33.511719 C 447.125 33.308594 447.566406 32.703125 448.105469 32.164062 C 448.644531 31.621094 449.085938 31.011719 449.085938 30.804688 C 449.085938 30.601562 449.53125 29.964844 450.074219 29.390625 C 450.613281 28.820312 451.054688 28.1875 451.054688 27.992188 C 451.054688 27.796875 451.554688 27.035156 452.164062 26.292969 C 452.773438 25.558594 453.34375 24.714844 453.433594 24.429688 C 453.527344 24.140625 453.78125 23.835938 454 23.753906 C 454.21875 23.667969 454.671875 23.058594 455.011719 22.390625 C 455.34375 21.726562 455.980469 20.675781 456.421875 20.058594 C 457.542969 18.484375 457.761719 16.65625 456.953125 15.625 C 456.613281 15.199219 455.902344 14.664062 455.375 14.441406 C 454.496094 14.074219 454.328125 14.089844 453.363281 14.632812 C 452.210938 15.289062 449.09375 18.460938 449.089844 18.984375 C 449.089844 19.167969 448.773438 19.566406 448.386719 19.871094 C 448 20.175781 447.527344 20.796875 447.332031 21.25 C 447.140625 21.703125 446.625 22.507812 446.191406 23.035156 C 445.757812 23.5625 445.101562 24.4375 444.738281 24.976562 C 444.371094 25.519531 443.109375 27.355469 441.933594 29.054688 C 440.992188 30.410156 440.054688 31.769531 439.117188 33.125 C 438.625 33.835938 438.125 34.539062 437.621094 35.234375 C 437.171875 35.851562 436.613281 36.738281 436.375 37.203125 C 436.140625 37.667969 435.621094 38.351562 435.21875 38.730469 C 434.820312 39.101562 434.488281 39.558594 434.488281 39.738281 C 434.488281 39.917969 434.226562 40.308594 433.898438 40.601562 C 433.574219 40.898438 432.992188 41.765625 432.605469 42.527344 C 432.214844 43.292969 431.597656 44.15625 431.230469 44.445312 C 430.859375 44.734375 430.558594 45.148438 430.558594 45.363281 C 430.558594 45.582031 430.199219 46.171875 429.757812 46.675781 C 429.3125 47.1875 428.675781 48.105469 428.335938 48.726562 C 427.683594 49.921875 426.128906 52.285156 425.375 53.21875 C 424.957031 53.75 423.589844 55.859375 422.492188 57.691406 C 422.21875 58.136719 421.667969 58.898438 421.265625 59.375 C 420.863281 59.855469 420.269531 60.765625 419.953125 61.390625 C 419.632812 62.019531 419.164062 62.707031 418.910156 62.917969 C 418.652344 63.128906 418.136719 63.914062 417.761719 64.660156 C 417.386719 65.402344 416.945312 66.007812 416.785156 66.007812 C 416.625 66.007812 416.253906 66.550781 415.960938 67.210938 C 415.671875 67.871094 415.109375 68.710938 414.722656 69.082031 C 414.332031 69.445312 413.875 70.171875 413.703125 70.691406 C 413.53125 71.207031 413.152344 71.761719 412.863281 71.914062 C 412.574219 72.070312 412.097656 72.734375 411.808594 73.390625 C 411.519531 74.046875 411.007812 74.898438 410.679688 75.285156 C 409.773438 76.339844 408.222656 78.636719 407.4375 80.082031 C 407.054688 80.785156 406.535156 81.535156 406.277344 81.746094 C 406.023438 81.957031 405.554688 82.648438 405.238281 83.277344 C 404.921875 83.902344 404.488281 84.519531 404.269531 84.644531 C 404.058594 84.765625 403.582031 85.464844 403.214844 86.191406 C 402.851562 86.917969 402.292969 87.738281 401.980469 88.023438 C 401.671875 88.304688 401.257812 88.910156 401.066406 89.375 C 400.875 89.839844 400.199219 90.730469 399.566406 91.355469 L 398.417969 92.492188 L 395.613281 92.246094 C 394.066406 92.113281 389.199219 92 384.800781 92 C 380.398438 91.996094 376.644531 91.960938 376.449219 91.925781 C 376.226562 91.886719 376.097656 91.375 376.097656 90.519531 C 376.097656 89.398438 376.277344 88.945312 377.207031 87.707031 C 377.8125 86.898438 378.398438 85.957031 378.507812 85.617188 C 378.613281 85.277344 378.984375 84.777344 379.328125 84.507812 C 379.671875 84.234375 380.121094 83.597656 380.320312 83.09375 C 380.527344 82.582031 381.050781 81.753906 381.484375 81.246094 C 381.921875 80.738281 382.273438 80.160156 382.273438 79.960938 C 382.273438 79.765625 382.714844 79.082031 383.257812 78.449219 C 383.796875 77.820312 384.242188 77.164062 384.242188 76.996094 C 384.242188 76.828125 384.660156 76.214844 385.175781 75.636719 C 385.683594 75.054688 386.265625 74.183594 386.457031 73.699219 C 386.648438 73.21875 387.179688 72.464844 387.628906 72.03125 C 388.082031 71.597656 388.449219 71.140625 388.449219 71.019531 C 388.449219 70.746094 390.683594 67.328125 391.632812 66.148438 C 392.007812 65.683594 392.59375 64.800781 392.929688 64.183594 C 393.269531 63.566406 393.710938 62.933594 393.910156 62.777344 C 394.101562 62.621094 394.550781 61.925781 394.90625 61.234375 C 395.257812 60.535156 395.910156 59.550781 396.351562 59.046875 C 396.792969 58.535156 397.15625 57.988281 397.15625 57.824219 C 397.15625 57.660156 397.597656 57.011719 398.136719 56.378906 C 398.675781 55.746094 399.117188 55.058594 399.117188 54.847656 C 399.117188 54.632812 399.4375 54.144531 399.824219 53.757812 C 400.210938 53.371094 400.769531 52.578125 401.066406 51.992188 C 401.363281 51.414062 401.8125 50.761719 402.066406 50.550781 C 402.324219 50.335938 402.835938 49.5625 403.207031 48.828125 C 403.578125 48.09375 404.058594 47.390625 404.269531 47.265625 C 404.488281 47.140625 404.929688 46.511719 405.253906 45.863281 C 405.582031 45.21875 405.972656 44.609375 406.128906 44.515625 C 406.378906 44.359375 408.367188 41.492188 409.550781 39.578125 C 409.804688 39.160156 410.46875 38.226562 411.023438 37.5 C 411.578125 36.773438 412.03125 36.082031 412.03125 35.96875 C 412.03125 35.851562 412.417969 35.328125 412.886719 34.804688 C 413.355469 34.277344 413.8125 33.554688 413.902344 33.199219 C 413.992188 32.84375 414.3125 32.417969 414.617188 32.257812 C 414.921875 32.09375 415.335938 31.558594 415.542969 31.066406 C 415.746094 30.570312 416.304688 29.761719 416.78125 29.261719 C 417.257812 28.761719 417.644531 28.195312 417.644531 27.996094 C 417.644531 27.800781 418.144531 27.035156 418.753906 26.292969 C 419.363281 25.558594 419.9375 24.714844 420.03125 24.429688 C 420.121094 24.140625 420.375 23.835938 420.59375 23.753906 C 420.8125 23.667969 421.300781 22.992188 421.679688 22.25 C 422.054688 21.511719 422.628906 20.597656 422.953125 20.230469 C 423.539062 19.558594 424.101562 17.988281 424.101562 17.011719 C 424.105469 16.066406 423.1875 14.914062 422.078125 14.480469 C 421.054688 14.078125 420.925781 14.089844 419.953125 14.640625 C 418.832031 15.273438 415.6875 18.457031 415.683594 18.957031 C 415.683594 19.125 415.304688 19.601562 414.839844 20.015625 C 414.378906 20.429688 414 20.949219 414 21.167969 C 414 21.390625 413.527344 22.140625 412.945312 22.835938 C 412.367188 23.53125 411.640625 24.480469 411.332031 24.953125 C 411.023438 25.425781 409.78125 27.238281 408.578125 28.980469 C 407.371094 30.71875 406.082031 32.585938 405.710938 33.125 C 405.21875 33.835938 404.722656 34.539062 404.214844 35.234375 C 403.765625 35.851562 403.203125 36.738281 402.96875 37.203125 C 402.734375 37.667969 402.214844 38.351562 401.8125 38.730469 C 401.410156 39.101562 401.085938 39.558594 401.085938 39.738281 C 401.085938 39.917969 400.816406 40.308594 400.492188 40.601562 C 400.167969 40.898438 399.582031 41.765625 399.195312 42.527344 C 398.808594 43.292969 398.191406 44.15625 397.824219 44.445312 C 397.457031 44.734375 397.15625 45.148438 397.15625 45.363281 C 397.15625 45.582031 396.792969 46.171875 396.351562 46.675781 C 395.910156 47.1875 395.269531 48.105469 394.929688 48.726562 C 394.277344 49.921875 392.71875 52.285156 391.972656 53.21875 C 391.558594 53.738281 390.308594 55.664062 389.082031 57.679688 C 388.8125 58.121094 388.199219 58.964844 387.726562 59.550781 C 387.25 60.136719 386.6875 61.035156 386.476562 61.554688 C 386.265625 62.074219 385.863281 62.664062 385.582031 62.871094 C 385.300781 63.070312 384.757812 63.863281 384.371094 64.625 C 383.984375 65.386719 383.539062 66.007812 383.378906 66.007812 C 383.21875 66.007812 382.847656 66.550781 382.554688 67.210938 C 382.261719 67.871094 381.703125 68.710938 381.316406 69.082031 C 380.929688 69.445312 380.46875 70.171875 380.296875 70.691406 C 380.125 71.207031 379.742188 71.761719 379.445312 71.921875 C 379.148438 72.082031 378.710938 72.675781 378.476562 73.238281 C 378.242188 73.804688 377.671875 74.78125 377.214844 75.410156 L 375.410156 77.867188 C 374.878906 78.59375 374.195312 79.679688 373.890625 80.277344 C 373.585938 80.871094 373.125 81.539062 372.871094 81.746094 C 372.617188 81.957031 372.148438 82.648438 371.832031 83.277344 C 371.511719 83.902344 371.078125 84.519531 370.867188 84.644531 C 370.65625 84.765625 370.210938 85.398438 369.882812 86.050781 C 369.554688 86.699219 368.925781 87.640625 368.484375 88.152344 C 368.039062 88.65625 367.675781 89.238281 367.675781 89.441406 C 367.675781 89.855469 365.652344 92.007812 364.863281 92.429688 C 364.578125 92.582031 362.851562 92.710938 361.027344 92.714844 C 356.195312 92.722656 351.304688 93.160156 350.332031 93.660156 C 349.042969 94.328125 348.367188 95.695312 348.648438 97.050781 C 349.097656 99.191406 349.300781 99.269531 353.925781 99.074219 C 357.839844 98.910156 359.855469 99.117188 360.238281 99.734375 C 360.421875 100.03125 359.15625 102.683594 358.429688 103.527344 C 358.164062 103.835938 357.613281 104.660156 357.210938 105.355469 C 356.808594 106.050781 355.933594 107.164062 355.269531 107.824219 C 353.964844 109.132812 350.453125 111.722656 349.644531 111.980469 C 349.371094 112.066406 349.148438 112.246094 349.148438 112.378906 C 349.148438 112.511719 348.417969 113.066406 347.53125 113.605469 C 346.636719 114.148438 345.609375 114.851562 345.238281 115.171875 C 344.871094 115.492188 344.433594 115.753906 344.261719 115.753906 C 344.09375 115.757812 343.40625 116.195312 342.738281 116.730469 C 342.066406 117.261719 341.246094 117.78125 340.910156 117.886719 C 340.578125 117.992188 339.902344 118.433594 339.402344 118.867188 C 338.902344 119.300781 338.046875 119.78125 337.503906 119.933594 C 336.957031 120.085938 336.125 120.527344 335.65625 120.921875 C 335.1875 121.316406 334.277344 121.78125 333.636719 121.957031 C 332.988281 122.132812 332.109375 122.566406 331.683594 122.925781 C 330.941406 123.550781 329.8125 123.875 326.410156 124.445312 C 324.957031 124.6875 324.820312 124.660156 324.09375 123.96875 C 323.671875 123.566406 323.320312 123.082031 323.320312 122.902344 C 323.320312 122.714844 323.816406 122.117188 324.417969 121.574219 C 325.519531 120.578125 326.445312 120.28125 329.882812 119.824219 C 330.785156 119.707031 331.484375 119.410156 331.9375 118.960938 C 332.3125 118.585938 333.023438 118.105469 333.511719 117.894531 C 334.742188 117.371094 337.589844 114.453125 338.214844 113.082031 C 338.5 112.464844 338.859375 111.148438 339.015625 110.160156 C 339.285156 108.472656 339.261719 108.269531 338.542969 106.792969 C 337.898438 105.464844 337.628906 105.179688 336.796875 104.980469 C 334.773438 104.484375 333.417969 104.472656 330.765625 104.925781 C 327.574219 105.472656 326.738281 105.75 326.511719 106.34375 C 326.417969 106.585938 325.980469 106.96875 325.539062 107.195312 C 325.097656 107.425781 324.324219 107.992188 323.820312 108.453125 C 321.363281 110.710938 320.5 111.429688 318.550781 112.824219 C 317.390625 113.648438 316.226562 114.519531 315.960938 114.75 C 315.699219 114.980469 315 115.476562 314.414062 115.84375 C 313.828125 116.21875 313.167969 116.738281 312.949219 117 C 312.730469 117.265625 312.101562 117.71875 311.546875 118.007812 C 311 118.300781 310.25 118.863281 309.886719 119.253906 C 309.527344 119.644531 309.007812 119.96875 308.746094 119.96875 C 308.476562 119.96875 307.953125 120.300781 307.582031 120.707031 C 307.207031 121.113281 306.332031 121.6875 305.636719 121.988281 C 304.941406 122.292969 304.121094 122.769531 303.8125 123.0625 C 303.503906 123.347656 302.660156 123.835938 301.949219 124.144531 C 301.230469 124.449219 300.566406 124.828125 300.46875 124.988281 C 300.257812 125.332031 298.664062 126.152344 298.207031 126.152344 C 298.03125 126.152344 297.265625 126.546875 296.507812 127.027344 C 295.75 127.507812 294.269531 128.183594 293.214844 128.523438 L 291.296875 129.152344 L 290.488281 128.230469 L 289.679688 127.3125 L 290.21875 125.574219 C 290.679688 124.109375 291.300781 122.863281 293.035156 119.96875 C 293.171875 119.734375 293.632812 118.929688 294.058594 118.171875 C 294.480469 117.417969 295.175781 116.390625 295.601562 115.890625 C 296.023438 115.386719 296.578125 114.488281 296.828125 113.886719 C 297.078125 113.289062 297.640625 112.386719 298.089844 111.878906 C 298.535156 111.371094 298.898438 110.765625 298.898438 110.535156 C 298.898438 110.300781 299.226562 109.777344 299.628906 109.375 C 300.027344 108.976562 300.582031 108.125 300.859375 107.496094 C 301.132812 106.859375 301.6875 106.03125 302.09375 105.65625 C 302.5 105.28125 302.828125 104.8125 302.828125 104.613281 C 302.828125 104.414062 303.175781 103.835938 303.601562 103.328125 C 304.027344 102.820312 304.671875 101.804688 305.046875 101.070312 C 305.414062 100.332031 305.8125 99.734375 305.929688 99.734375 C 306.050781 99.734375 306.523438 99.070312 306.984375 98.257812 C 307.449219 97.449219 308.039062 96.527344 308.292969 96.21875 C 308.542969 95.910156 309.128906 95.027344 309.589844 94.253906 C 310.5 92.730469 311.464844 91.296875 312.332031 90.164062 C 312.636719 89.769531 313.15625 88.929688 313.480469 88.300781 C 313.808594 87.671875 314.332031 86.929688 314.636719 86.644531 C 314.945312 86.367188 315.441406 85.59375 315.734375 84.925781 C 316.03125 84.261719 316.394531 83.714844 316.539062 83.714844 C 316.683594 83.714844 317.070312 83.144531 317.398438 82.445312 C 317.722656 81.75 318.242188 80.933594 318.539062 80.628906 C 318.839844 80.328125 319.332031 79.605469 319.632812 79.019531 C 319.929688 78.433594 320.4375 77.714844 320.765625 77.417969 C 321.089844 77.125 321.355469 76.734375 321.355469 76.546875 C 321.355469 76.363281 321.765625 75.671875 322.269531 75.011719 C 322.769531 74.351562 323.4375 73.410156 323.746094 72.917969 C 324.054688 72.433594 324.683594 71.425781 325.144531 70.6875 C 325.609375 69.953125 326.410156 68.824219 326.917969 68.1875 C 327.433594 67.550781 328.09375 66.558594 328.390625 65.980469 C 328.6875 65.398438 329.058594 64.84375 329.21875 64.742188 C 329.378906 64.644531 329.808594 63.972656 330.175781 63.25 C 330.546875 62.527344 331.171875 61.625 331.574219 61.253906 C 331.976562 60.878906 332.304688 60.386719 332.304688 60.160156 C 332.304688 59.9375 332.746094 59.265625 333.289062 58.667969 C 333.828125 58.066406 334.269531 57.398438 334.269531 57.183594 C 334.269531 56.964844 334.714844 56.257812 335.253906 55.613281 C 335.792969 54.964844 336.234375 54.324219 336.234375 54.1875 C 336.234375 54.054688 336.597656 53.527344 337.042969 53.019531 C 337.484375 52.515625 338.105469 51.582031 338.425781 50.957031 C 338.742188 50.328125 339.207031 49.636719 339.464844 49.425781 C 339.71875 49.21875 340.15625 48.59375 340.441406 48.042969 C 340.726562 47.492188 341.210938 46.773438 341.515625 46.449219 C 341.824219 46.128906 342.265625 45.484375 342.507812 45.023438 C 342.746094 44.5625 343.378906 43.652344 343.921875 43.007812 C 344.460938 42.359375 344.996094 41.542969 345.101562 41.203125 C 345.210938 40.855469 345.53125 40.414062 345.8125 40.210938 C 346.09375 40.015625 346.542969 39.382812 346.804688 38.808594 C 347.070312 38.234375 347.707031 37.289062 348.21875 36.707031 C 348.730469 36.128906 349.148438 35.488281 349.148438 35.285156 C 349.148438 35.078125 349.464844 34.613281 349.847656 34.253906 C 350.234375 33.894531 350.8125 33.046875 351.136719 32.378906 C 351.460938 31.710938 351.828125 31.160156 351.957031 31.160156 C 352.082031 31.160156 352.535156 30.558594 352.960938 29.828125 C 353.390625 29.089844 353.890625 28.367188 354.082031 28.210938 C 354.269531 28.058594 354.753906 27.390625 355.15625 26.734375 C 355.5625 26.078125 355.996094 25.539062 356.121094 25.539062 C 356.242188 25.539062 356.539062 25.128906 356.78125 24.628906 C 357.023438 24.125 357.617188 23.207031 358.109375 22.589844 C 360.300781 19.816406 361.269531 17.984375 361.421875 16.328125 C 361.597656 14.359375 361.066406 13.523438 359.460938 13.265625 C 357.828125 13.007812 356.195312 13.777344 355.1875 15.289062 C 354.722656 15.980469 354.261719 16.542969 354.160156 16.542969 C 354.058594 16.542969 353.648438 17.105469 353.25 17.785156 C 352.847656 18.472656 352.140625 19.410156 351.675781 19.875 C 351.214844 20.339844 350.832031 20.890625 350.832031 21.09375 C 350.832031 21.296875 350.453125 21.828125 349.992188 22.261719 C 349.527344 22.699219 349.148438 23.207031 349.148438 23.390625 C 349.148438 23.574219 348.675781 24.308594 348.09375 25.023438 C 347.519531 25.734375 346.824219 26.683594 346.550781 27.125 C 346.28125 27.566406 345.746094 28.371094 345.363281 28.914062 C 344.835938 29.65625 344.316406 30.40625 343.800781 31.160156 C 343.222656 32 342.640625 32.832031 342.042969 33.660156 C 340.847656 35.304688 339.917969 36.6875 338.902344 38.335938 C 338.4375 39.085938 337.796875 39.960938 337.46875 40.277344 C 337.144531 40.597656 336.65625 41.300781 336.378906 41.839844 C 336.105469 42.382812 335.515625 43.242188 335.074219 43.746094 C 334.632812 44.257812 334.269531 44.855469 334.269531 45.082031 C 334.269531 45.308594 333.828125 45.980469 333.289062 46.582031 C 332.746094 47.179688 332.304688 47.808594 332.304688 47.976562 C 332.304688 48.148438 331.925781 48.714844 331.464844 49.242188 C 331 49.773438 330.621094 50.328125 330.621094 50.476562 C 330.621094 50.628906 330.210938 51.289062 329.707031 51.953125 C 328.640625 53.363281 327.71875 54.710938 326.550781 56.582031 C 326.085938 57.328125 325.296875 58.433594 324.796875 59.046875 C 324.292969 59.660156 323.882812 60.289062 323.882812 60.445312 C 323.882812 60.601562 323.519531 61.191406 323.078125 61.753906 C 322.636719 62.316406 322.050781 63.21875 321.777344 63.761719 C 321.503906 64.300781 320.964844 65.058594 320.578125 65.445312 C 320.191406 65.832031 319.703125 66.554688 319.496094 67.046875 C 319.285156 67.542969 318.941406 68.046875 318.730469 68.171875 C 318.511719 68.296875 318.023438 69.027344 317.632812 69.804688 C 317.246094 70.578125 316.660156 71.449219 316.332031 71.746094 C 316.007812 72.039062 315.742188 72.449219 315.742188 72.65625 C 315.742188 72.863281 315.324219 73.507812 314.808594 74.085938 C 314.296875 74.667969 313.714844 75.546875 313.523438 76.035156 C 313.324219 76.527344 312.910156 77.160156 312.601562 77.4375 C 312.289062 77.722656 311.851562 78.308594 311.621094 78.75 C 311.398438 79.183594 310.8125 80.082031 310.320312 80.746094 C 309.828125 81.40625 309.203125 82.316406 308.929688 82.761719 C 308.660156 83.207031 307.929688 84.332031 307.3125 85.261719 C 306.695312 86.1875 305.84375 87.5 305.421875 88.179688 C 305 88.855469 304.242188 89.910156 303.738281 90.519531 C 303.238281 91.136719 302.828125 91.796875 302.828125 91.992188 C 302.828125 92.179688 302.558594 92.582031 302.226562 92.875 C 301.894531 93.167969 301.398438 93.921875 301.117188 94.542969 C 300.839844 95.164062 300.292969 95.972656 299.902344 96.339844 C 299.511719 96.707031 299.054688 97.429688 298.886719 97.945312 C 298.714844 98.460938 298.300781 99.105469 297.960938 99.378906 C 297.625 99.652344 297.109375 100.410156 296.820312 101.058594 C 296.53125 101.714844 296.046875 102.472656 295.742188 102.746094 C 295.4375 103.023438 294.941406 103.730469 294.644531 104.316406 C 293.929688 105.714844 290.988281 108.597656 289.523438 109.335938 C 288.890625 109.65625 288.117188 110.144531 287.808594 110.433594 C 287.496094 110.714844 286.621094 111.222656 285.863281 111.558594 C 285.105469 111.894531 284.234375 112.402344 283.933594 112.683594 C 283.304688 113.269531 282.714844 113.421875 279.273438 113.890625 C 277.269531 114.167969 276.484375 114.160156 275.148438 113.859375 C 273.136719 113.402344 272.421875 112.839844 271.585938 111.070312 C 270.785156 109.371094 269.132812 107.039062 268.734375 107.039062 C 268.566406 107.039062 267.960938 106.789062 267.382812 106.480469 C 266.042969 105.761719 264.820312 105.765625 263.644531 106.492188 C 262.953125 106.921875 261.933594 107.132812 259.667969 107.316406 C 256.207031 107.597656 255.367188 107.765625 253.980469 108.449219 C 253.441406 108.71875 252.117188 109.085938 251.035156 109.273438 C 249.953125 109.453125 248.253906 109.988281 247.253906 110.457031 C 246.257812 110.925781 244.996094 111.378906 244.449219 111.464844 C 243.902344 111.546875 242.957031 111.851562 242.347656 112.140625 C 240.746094 112.898438 239.515625 112.8125 238.300781 111.855469 C 236.957031 110.796875 235.277344 109.972656 234 109.742188 C 232.914062 109.542969 229.367188 109.996094 228.867188 110.394531 C 228.707031 110.527344 227.664062 110.957031 226.550781 111.355469 C 225.441406 111.753906 223.996094 112.464844 223.351562 112.933594 C 222.703125 113.402344 222.058594 113.789062 221.910156 113.789062 C 221.769531 113.789062 220.984375 114.230469 220.171875 114.769531 C 218.460938 115.90625 218.179688 115.957031 217.769531 115.195312 C 217.539062 114.761719 217.585938 114.429688 217.96875 113.753906 C 218.277344 113.214844 218.578125 112.675781 218.875 112.136719 C 219.359375 111.257812 219.386719 108.625 218.921875 108.0625 C 218.367188 107.398438 216.289062 107.019531 214.777344 107.304688 C 213.011719 107.640625 212.074219 108.007812 211.640625 108.527344 C 211.449219 108.757812 210.886719 109.109375 210.390625 109.304688 C 209.890625 109.5 209.105469 109.9375 208.644531 110.277344 C 207.886719 110.835938 206.59375 111.578125 203.917969 112.992188 C 203.429688 113.253906 201.808594 113.636719 200.308594 113.847656 C 198.050781 114.164062 197.316406 114.167969 195.96875 113.859375 C 193.761719 113.355469 193.148438 112.886719 192.265625 111.019531 C 191.09375 108.546875 190.09375 107.417969 188.371094 106.628906 C 186.519531 105.78125 185.617188 105.742188 184.019531 106.445312 C 183.355469 106.734375 181.933594 107.183594 180.851562 107.433594 C 179.71875 107.703125 178.710938 108.121094 178.464844 108.425781 C 178.234375 108.714844 177.519531 109.210938 176.875 109.53125 C 176.238281 109.855469 175.667969 110.226562 175.613281 110.363281 C 175.492188 110.671875 170.976562 113.789062 170.648438 113.789062 C 170.515625 113.789062 170.078125 114.09375 169.675781 114.464844 C 169.277344 114.835938 168.402344 115.4375 167.742188 115.796875 C 167.078125 116.152344 166.117188 116.796875 165.613281 117.226562 C 165.105469 117.652344 164.507812 118.003906 164.289062 118.003906 C 164.066406 118.003906 163.445312 118.390625 162.90625 118.867188 C 162.363281 119.335938 161.480469 119.851562 160.941406 120 C 160.398438 120.148438 159.589844 120.578125 159.148438 120.953125 C 158.699219 121.328125 157.71875 121.839844 156.960938 122.09375 C 156.207031 122.347656 155.320312 122.796875 154.996094 123.09375 C 154.277344 123.761719 150.164062 124.585938 148.609375 124.375 C 144.96875 123.886719 147.375 120.53125 151.671875 120.101562 C 154.195312 119.847656 154.519531 119.746094 155.511719 118.878906 C 156.015625 118.4375 156.742188 117.980469 157.125 117.859375 C 158.277344 117.5 160.433594 115.441406 161.691406 113.503906 C 162.71875 111.917969 162.886719 111.433594 162.976562 109.824219 C 163.140625 106.949219 162.140625 105.550781 159.375 104.777344 C 157.878906 104.363281 157.097656 104.386719 154.417969 104.9375 C 151.949219 105.445312 151.066406 105.769531 150.765625 106.28125 C 150.636719 106.5 150.214844 106.84375 149.828125 107.042969 C 149.125 107.414062 146.484375 109.835938 145.101562 111.386719 C 144.390625 112.179688 141.8125 114.734375 139.722656 116.710938 C 139.183594 117.226562 137.414062 118.8125 135.792969 120.246094 C 134.171875 121.675781 132.578125 123.117188 132.25 123.449219 C 131.921875 123.773438 130.535156 125.054688 129.171875 126.292969 C 127.804688 127.527344 126.226562 128.984375 125.660156 129.527344 C 125.09375 130.066406 123.601562 131.457031 122.34375 132.617188 C 121.085938 133.773438 119.183594 135.578125 118.117188 136.621094 C 117.050781 137.664062 116.128906 138.515625 116.070312 138.515625 C 116.011719 138.515625 115.023438 139.414062 113.878906 140.507812 C 111.332031 142.929688 107.511719 146.445312 105.613281 148.105469 C 104.738281 148.878906 103.867188 149.664062 103.007812 150.460938 C 102.34375 151.082031 101.359375 151.964844 100.8125 152.429688 C 100.269531 152.894531 99.484375 153.597656 99.070312 153.992188 C 98.65625 154.390625 97.621094 155.324219 96.773438 156.066406 C 95.925781 156.808594 94.34375 158.207031 93.261719 159.171875 C 90.4375 161.699219 87.808594 163.902344 87.207031 164.253906 C 86.917969 164.421875 86.417969 164.894531 86.09375 165.308594 C 85.765625 165.722656 85.324219 166.0625 85.109375 166.0625 C 84.894531 166.0625 84.441406 166.4375 84.097656 166.902344 C 83.753906 167.363281 83.257812 167.808594 82.984375 167.894531 C 82.71875 167.980469 81.953125 168.550781 81.28125 169.167969 C 80.648438 169.753906 80.007812 170.339844 79.367188 170.921875 C 78.980469 171.277344 78.222656 171.871094 77.683594 172.242188 C 77.144531 172.617188 76.574219 173.070312 76.417969 173.242188 C 76.265625 173.417969 75.699219 173.855469 75.15625 174.21875 C 74.050781 174.957031 72.28125 176.394531 71.226562 177.402344 C 70.84375 177.773438 70.246094 178.214844 69.910156 178.390625 C 69.570312 178.566406 68.707031 179.21875 67.996094 179.832031 C 67.285156 180.449219 66.523438 180.953125 66.304688 180.953125 C 66.089844 180.953125 65.777344 181.207031 65.613281 181.515625 C 65.445312 181.824219 64.84375 182.320312 64.269531 182.613281 C 63.695312 182.90625 62.917969 183.476562 62.546875 183.878906 C 62.171875 184.28125 61.699219 184.605469 61.492188 184.605469 C 61.289062 184.605469 60.644531 185.035156 60.070312 185.554688 C 59.488281 186.074219 58.761719 186.578125 58.453125 186.679688 C 58.144531 186.777344 57.398438 187.296875 56.785156 187.839844 C 56.179688 188.378906 55.542969 188.824219 55.363281 188.824219 C 55.1875 188.824219 54.757812 189.128906 54.402344 189.5 C 54.054688 189.878906 53.179688 190.449219 52.457031 190.773438 C 51.742188 191.101562 50.5625 191.773438 49.835938 192.273438 C 47.671875 193.761719 45.898438 194.828125 44.519531 195.46875 C 43.804688 195.804688 43.140625 196.199219 43.042969 196.359375 C 42.949219 196.519531 42.207031 196.871094 41.402344 197.132812 C 40.601562 197.402344 39.460938 197.972656 38.867188 198.398438 C 38.28125 198.828125 37.265625 199.261719 36.613281 199.363281 C 35.964844 199.46875 34.730469 199.910156 33.875 200.347656 C 32.617188 200.992188 31.664062 201.210938 28.960938 201.480469 C 24.484375 201.929688 21.828125 201.5625 20.6875 200.335938 C 20.257812 199.878906 19.792969 199.503906 19.652344 199.503906 C 19.511719 199.503906 19.183594 199.089844 18.925781 198.589844 C 18.667969 198.085938 18.199219 197.355469 17.878906 196.964844 C 17.003906 195.878906 16.71875 192.179688 17.089844 186.722656 C 17.347656 182.902344 17.511719 181.941406 18.179688 180.257812 C 18.613281 179.171875 19.085938 177.398438 19.234375 176.320312 C 19.382812 175.238281 19.777344 173.890625 20.113281 173.324219 C 20.445312 172.757812 20.847656 171.496094 21.003906 170.511719 C 21.15625 169.53125 21.640625 168.097656 22.078125 167.324219 C 22.511719 166.550781 23.011719 165.246094 23.183594 164.421875 C 23.363281 163.59375 23.8125 162.394531 24.1875 161.75 C 24.5625 161.105469 25.019531 159.945312 25.203125 159.175781 C 25.390625 158.402344 25.890625 157.136719 26.324219 156.363281 C 26.75 155.589844 27.25 154.398438 27.429688 153.710938 C 27.613281 153.027344 28.070312 152.015625 28.445312 151.464844 C 28.820312 150.914062 29.265625 149.953125 29.425781 149.335938 C 29.589844 148.71875 30.054688 147.644531 30.464844 146.949219 C 30.871094 146.253906 31.4375 144.996094 31.726562 144.15625 C 32.011719 143.316406 32.484375 142.328125 32.769531 141.960938 C 33.058594 141.597656 33.507812 140.652344 33.765625 139.867188 C 34.027344 139.078125 34.539062 137.996094 34.90625 137.460938 C 35.269531 136.925781 35.683594 136.054688 35.832031 135.53125 C 35.976562 135.003906 36.414062 134.191406 36.808594 133.722656 C 37.203125 133.253906 37.65625 132.378906 37.820312 131.773438 C 37.984375 131.171875 38.410156 130.320312 38.769531 129.886719 C 39.128906 129.457031 39.582031 128.597656 39.78125 127.976562 C 39.976562 127.359375 40.40625 126.476562 40.742188 126.011719 C 41.078125 125.550781 41.589844 124.601562 41.882812 123.90625 C 42.175781 123.210938 42.640625 122.382812 42.910156 122.074219 C 43.179688 121.761719 43.722656 120.796875 44.105469 119.921875 C 44.492188 119.046875 44.945312 118.25 45.113281 118.148438 C 45.273438 118.042969 45.800781 117.179688 46.269531 116.222656 C 47.933594 112.871094 48.914062 111.082031 49.519531 110.3125 C 49.859375 109.886719 50.351562 108.976562 50.613281 108.289062 C 50.875 107.601562 51.207031 107.039062 51.347656 107.039062 C 51.492188 107.039062 51.933594 106.316406 52.335938 105.425781 C 52.742188 104.535156 53.347656 103.523438 53.691406 103.171875 C 54.035156 102.824219 54.382812 102.175781 54.472656 101.734375 C 54.5625 101.296875 54.96875 100.539062 55.375 100.054688 C 55.78125 99.570312 56.453125 98.542969 56.863281 97.777344 C 58.691406 94.378906 59.246094 93.421875 60.019531 92.355469 C 60.46875 91.730469 60.839844 91.101562 60.839844 90.957031 C 60.839844 90.816406 61.34375 89.992188 61.960938 89.125 C 62.578125 88.261719 63.085938 87.410156 63.085938 87.238281 C 63.085938 87.058594 63.335938 86.640625 63.644531 86.3125 C 63.949219 85.984375 64.484375 85.167969 64.824219 84.503906 C 65.171875 83.835938 65.867188 82.746094 66.371094 82.078125 C 66.882812 81.40625 67.292969 80.636719 67.292969 80.363281 C 67.292969 80.089844 67.566406 79.625 67.894531 79.332031 C 68.21875 79.039062 68.796875 78.140625 69.175781 77.34375 C 69.558594 76.542969 70.050781 75.816406 70.273438 75.730469 C 70.496094 75.644531 70.929688 74.984375 71.242188 74.261719 C 71.550781 73.539062 72.179688 72.523438 72.636719 72 C 73.09375 71.476562 73.46875 70.882812 73.46875 70.679688 C 73.46875 70.480469 73.71875 70.089844 74.019531 69.8125 C 74.320312 69.542969 74.90625 68.667969 75.320312 67.875 C 75.734375 67.078125 76.164062 66.371094 76.277344 66.292969 C 76.539062 66.113281 78.429688 63.273438 79.386719 61.625 C 79.785156 60.9375 80.449219 59.910156 80.867188 59.332031 C 82.582031 56.960938 83.042969 56.253906 83.652344 55.050781 C 84 54.355469 84.632812 53.445312 85.058594 53.023438 C 85.476562 52.605469 85.824219 52.082031 85.824219 51.855469 C 85.824219 51.632812 86.265625 50.917969 86.808594 50.269531 C 87.347656 49.625 87.789062 48.9375 87.789062 48.75 C 87.789062 48.558594 88.21875 47.902344 88.742188 47.289062 C 89.269531 46.671875 89.902344 45.738281 90.15625 45.199219 C 90.621094 44.203125 91.941406 42.175781 93.261719 40.4375 C 93.671875 39.894531 94.625 38.566406 95.378906 37.484375 C 97.046875 35.089844 97.886719 33.9375 99.164062 32.285156 C 99.703125 31.589844 100.324219 30.636719 100.539062 30.167969 C 100.757812 29.703125 101.210938 29.074219 101.550781 28.765625 C 101.890625 28.457031 102.40625 27.742188 102.699219 27.164062 C 102.988281 26.589844 103.484375 25.984375 103.792969 25.820312 C 104.097656 25.652344 104.351562 25.34375 104.351562 25.132812 C 104.351562 24.925781 104.765625 24.242188 105.265625 23.617188 C 105.769531 22.996094 106.523438 21.9375 106.941406 21.273438 C 107.363281 20.605469 108.148438 19.492188 108.6875 18.792969 C 109.222656 18.097656 110.042969 16.960938 110.507812 16.265625 C 110.972656 15.570312 111.492188 14.839844 111.660156 14.640625 C 111.832031 14.441406 112.464844 13.535156 113.070312 12.625 C 113.675781 11.707031 114.296875 10.886719 114.445312 10.792969 C 114.597656 10.695312 114.9375 10.148438 115.199219 9.578125 C 115.460938 9.003906 115.847656 8.332031 116.058594 8.082031 C 116.269531 7.832031 116.550781 7.242188 116.6875 6.765625 C 116.894531 6.054688 116.808594 5.707031 116.210938 4.78125 C 115.578125 3.804688 114.566406 3.035156 113.957031 3.066406 C 113.84375 3.070312 113.457031 3.242188 113.097656 3.445312 M 372.589844 98.789062 C 371.816406 98.851562 370.910156 98.957031 370.578125 99.035156 C 369.574219 99.257812 368.210938 100.597656 367.652344 101.898438 C 367.363281 102.570312 366.929688 103.199219 366.683594 103.289062 C 366.433594 103.386719 365.941406 104.109375 365.59375 104.902344 C 365.242188 105.695312 364.679688 106.578125 364.347656 106.871094 C 364.015625 107.167969 363.746094 107.570312 363.746094 107.765625 C 363.746094 107.964844 363.292969 108.71875 362.734375 109.445312 C 362.179688 110.175781 361.589844 111.167969 361.425781 111.648438 C 361.261719 112.128906 360.707031 113.019531 360.191406 113.625 C 359.679688 114.234375 359.253906 114.867188 359.253906 115.03125 C 359.253906 115.199219 358.921875 115.710938 358.519531 116.175781 C 358.109375 116.636719 357.492188 117.65625 357.140625 118.433594 C 356.792969 119.214844 356.316406 120.007812 356.085938 120.199219 C 355.855469 120.390625 355.382812 121.207031 355.039062 122.015625 C 354.691406 122.824219 354.175781 123.78125 353.886719 124.152344 C 353.597656 124.519531 353.105469 125.683594 352.792969 126.738281 C 352.476562 127.796875 352.097656 128.734375 351.949219 128.828125 C 351.429688 129.144531 351.679688 129.464844 352.808594 129.917969 C 354.105469 130.4375 354.9375 130.3125 356.597656 129.355469 C 357.21875 128.992188 358.265625 128.511719 358.917969 128.28125 C 359.574219 128.050781 360.515625 127.550781 361.011719 127.171875 C 361.515625 126.792969 362.488281 126.261719 363.183594 125.992188 C 363.878906 125.722656 364.703125 125.285156 365.011719 125.019531 C 365.320312 124.75 366.015625 124.3125 366.554688 124.042969 C 367.097656 123.773438 367.792969 123.324219 368.105469 123.042969 C 368.414062 122.757812 369.171875 122.3125 369.789062 122.058594 C 370.402344 121.800781 371.320312 121.222656 371.828125 120.78125 C 372.335938 120.335938 372.894531 119.96875 373.078125 119.96875 C 373.257812 119.96875 373.804688 119.582031 374.289062 119.109375 C 374.777344 118.636719 375.554688 118.039062 376.019531 117.777344 C 377.191406 117.117188 379.402344 115.484375 380.339844 114.582031 C 380.773438 114.171875 381.382812 113.75 381.703125 113.648438 C 382.015625 113.550781 382.273438 113.363281 382.273438 113.238281 C 382.273438 113.109375 383.101562 112.472656 384.109375 111.8125 C 386.515625 110.242188 389.605469 107.125 390.742188 105.125 C 391.238281 104.246094 391.75 103.484375 391.882812 103.433594 C 392.011719 103.375 392.507812 102.566406 392.984375 101.625 C 393.800781 100.003906 393.820312 99.890625 393.339844 99.542969 C 392.707031 99.082031 392.609375 99.070312 387.328125 99.011719 C 384.9375 98.988281 380.957031 98.902344 378.484375 98.824219 C 376.015625 98.746094 373.359375 98.730469 372.589844 98.789062 M 260.777344 116.328125 C 259.960938 117.183594 259.03125 118.320312 258.707031 118.855469 C 258.382812 119.382812 257.960938 119.949219 257.761719 120.105469 C 257.5625 120.261719 257.144531 120.960938 256.828125 121.65625 C 256.511719 122.351562 255.992188 123.300781 255.675781 123.765625 C 255.015625 124.742188 254.929688 126.367188 255.5 127.148438 C 255.878906 127.667969 255.980469 127.605469 257.535156 125.976562 C 259.558594 123.859375 260.84375 122.066406 261.46875 120.480469 C 261.730469 119.8125 262.199219 118.917969 262.511719 118.488281 C 263.171875 117.578125 263.25 116.097656 262.671875 115.320312 C 262.28125 114.792969 262.203125 114.832031 260.777344 116.328125 M 181.519531 116.273438 C 180.804688 116.992188 179.988281 117.960938 179.707031 118.421875 C 179.421875 118.886719 178.839844 119.683594 178.40625 120.191406 C 177.976562 120.699219 177.625 121.226562 177.625 121.363281 C 177.625 121.503906 177.167969 122.378906 176.609375 123.316406 C 175.738281 124.78125 175.621094 125.175781 175.792969 126.078125 C 175.902344 126.65625 176.132812 127.222656 176.304688 127.328125 C 177.003906 127.757812 181.394531 122.699219 181.960938 120.8125 C 182.082031 120.425781 182.539062 119.53125 182.984375 118.820312 C 183.433594 118.109375 183.800781 117.261719 183.800781 116.9375 C 183.800781 116.273438 183.238281 114.894531 182.980469 114.9375 C 182.890625 114.953125 182.234375 115.550781 181.519531 116.273438 M 424.191406 116.808594 C 423.757812 117.386719 423.261719 117.953125 423.082031 118.070312 C 422.898438 118.183594 422.410156 118.878906 421.988281 119.617188 C 421.566406 120.351562 421.007812 121.203125 420.746094 121.515625 C 420.484375 121.824219 419.851562 123.1875 419.335938 124.550781 C 418.640625 126.390625 418.484375 127.101562 418.71875 127.339844 C 418.957031 127.578125 419.164062 127.542969 419.535156 127.203125 C 419.808594 126.957031 420.375 126.625 420.792969 126.464844 C 421.207031 126.308594 421.769531 125.824219 422.039062 125.394531 C 422.304688 124.957031 422.800781 124.351562 423.132812 124.042969 C 423.46875 123.734375 424.109375 122.808594 424.554688 121.980469 C 425 121.15625 425.589844 120.082031 425.859375 119.59375 C 426.128906 119.101562 426.351562 118.453125 426.355469 118.144531 C 426.359375 117.835938 426.476562 117.390625 426.621094 117.164062 C 426.945312 116.652344 426.214844 115.75 425.480469 115.75 C 425.203125 115.75 424.621094 116.226562 424.191406 116.808594 "
              fill-opacity="1" fill-rule="evenodd"/>
    </g>
</svg>