<svg xmlns="http://www.w3.org/2000/svg" zoomAndPan="magnify"
     viewBox="200 100 980 560" preserveAspectRatio="xMidYMid meet" version="1.2">
    <defs/>
    <g id="1362b293e4">
        <g style="fill:#084887;fill-opacity:1;">
            <g transform="translate(303.585342, 540.826106)">
                <path style="stroke:none"
                      d="M 3.890625 86.5625 C 9.253906 83.289062 13.816406 78.328125 17.578125 71.671875 C 21.347656 65.015625 23.695312 58.125 24.625 51 C 24.039062 50.75 23.492188 50.539062 22.984375 50.375 C 22.066406 50.207031 21.0625 50.125 19.96875 50.125 C 3.5625 50.882812 -12.679688 53.484375 -28.765625 57.921875 C -32.203125 58.835938 -35.507812 60.300781 -38.6875 62.3125 C -42.539062 64.65625 -44.613281 67.5 -44.90625 70.84375 C -45.207031 74.195312 -43.765625 77.507812 -40.578125 80.78125 C -35.046875 86.144531 -27.863281 89.367188 -19.03125 90.453125 C -10.195312 91.546875 -2.554688 90.25 3.890625 86.5625 Z M 52.015625 33.296875 C 56.203125 34.046875 60.429688 34.046875 64.703125 33.296875 C 66.378906 33.128906 67.925781 33.046875 69.34375 33.046875 C 112.144531 30.609375 154.90625 30.394531 197.625 32.40625 C 237.238281 33.75 276.6875 36.429688 315.96875 40.453125 L 317.859375 40.453125 C 326.316406 41.367188 331.757812 43.128906 334.1875 45.734375 C 335.101562 46.484375 335.476562 47.65625 335.3125 49.25 C 334.894531 50.757812 334.140625 51.890625 333.046875 52.640625 C 331.960938 53.390625 330.789062 53.847656 329.53125 54.015625 C 328.195312 54.359375 326.816406 54.359375 325.390625 54.015625 L 324.765625 54.015625 C 250.140625 46.816406 175.425781 44.679688 100.625 47.609375 L 89.578125 48.25 C 77.765625 48.75 65.953125 49.082031 54.140625 49.25 C 48.617188 49.082031 44.9375 51.59375 43.09375 56.78125 C 40.15625 64.90625 36.300781 72.445312 31.53125 79.40625 C 23.40625 90.625 13.226562 98.140625 1 101.953125 C -11.226562 105.765625 -23.707031 105.367188 -36.4375 100.765625 C -40.875 99.085938 -44.769531 97.035156 -48.125 94.609375 C -50.125 93.347656 -52.046875 91.878906 -53.890625 90.203125 C -57.742188 86.847656 -59.96875 82.242188 -60.5625 76.390625 C -60.894531 70.691406 -59.40625 66 -56.09375 62.3125 C -52.78125 58.625 -48.820312 55.484375 -44.21875 52.890625 C -38.53125 49.535156 -32.628906 46.9375 -26.515625 45.09375 C -20.398438 43.257812 -14.242188 41.796875 -8.046875 40.703125 C -1.003906 39.453125 5.90625 38.445312 12.6875 37.6875 C 15.28125 37.351562 17.960938 36.976562 20.734375 36.5625 C 25.753906 36.0625 29.082031 35.117188 30.71875 33.734375 C 32.351562 32.347656 33.628906 29.226562 34.546875 24.375 C 39.316406 3.019531 42.75 -18.503906 44.84375 -40.203125 C 47.613281 -72.867188 49.457031 -105.578125 50.375 -138.328125 C 50.707031 -149.960938 51.171875 -161.601562 51.765625 -173.25 C 54.109375 -235.644531 55.03125 -298.082031 54.53125 -360.5625 C 54.53125 -379.914062 52.6875 -399.097656 49 -418.109375 C 48.414062 -420.703125 48.125 -423.253906 48.125 -425.765625 C 48.289062 -427.609375 49.101562 -429.285156 50.5625 -430.796875 C 52.03125 -432.304688 53.6875 -433.0625 55.53125 -433.0625 C 57.789062 -433.0625 59.46875 -432.222656 60.5625 -430.546875 C 62.738281 -430.128906 64.117188 -428.75 64.703125 -426.40625 C 65.035156 -425.3125 65.328125 -424.304688 65.578125 -423.390625 C 67.421875 -417.109375 68.890625 -410.820312 69.984375 -404.53125 C 72.578125 -388.707031 73.875 -372.753906 73.875 -356.671875 C 74.207031 -324.679688 74.226562 -292.644531 73.9375 -260.5625 C 73.644531 -228.488281 72.703125 -196.410156 71.109375 -164.328125 L 69.34375 -124.5 C 68.675781 -105.15625 67.753906 -85.9375 66.578125 -66.84375 C 64.742188 -35.675781 60.265625 -4.976562 53.140625 25.25 C 53.140625 25.832031 53.015625 26.460938 52.765625 27.140625 C 52.265625 28.304688 52.015625 29.519531 52.015625 30.78125 C 51.847656 31.53125 51.847656 32.367188 52.015625 33.296875 Z M 52.015625 33.296875 "/>
            </g>
        </g>
        <g style="fill:#084887;fill-opacity:1;">
            <g transform="translate(430.390588, 540.826106)">
                <path style="stroke:none"
                      d="M 111.8125 -60.171875 C 113.488281 -61.097656 115.164062 -61.789062 116.84375 -62.25 C 118.519531 -62.707031 119.585938 -62.664062 120.046875 -62.125 C 120.503906 -61.582031 119.8125 -60.179688 117.96875 -57.921875 C 112.019531 -51.296875 105.046875 -45.257812 97.046875 -39.8125 C 89.046875 -34.375 80.898438 -29.726562 72.609375 -25.875 C 65.992188 -22.945312 59 -20.601562 51.625 -18.84375 C 44.257812 -17.082031 36.972656 -16.703125 29.765625 -17.703125 C 22.566406 -18.710938 16.035156 -21.898438 10.171875 -27.265625 C 3.140625 -34.296875 -0.6875 -43.234375 -1.3125 -54.078125 C -1.945312 -64.929688 0.582031 -74.039062 6.28125 -81.40625 C 13.820312 -89.863281 23.347656 -95.304688 34.859375 -97.734375 C 46.378906 -100.171875 56.742188 -98.332031 65.953125 -92.21875 C 70.390625 -89.113281 72.191406 -85.488281 71.359375 -81.34375 C 70.523438 -77.195312 68.304688 -73.320312 64.703125 -69.71875 C 61.097656 -66.125 57.078125 -63.40625 52.640625 -61.5625 C 46.023438 -58.96875 40.097656 -58.441406 34.859375 -59.984375 C 29.628906 -61.535156 25.546875 -63.609375 22.609375 -66.203125 C 20.515625 -65.453125 19.21875 -62.523438 18.71875 -57.421875 C 17.375 -47.785156 20.390625 -39.953125 27.765625 -33.921875 C 33.878906 -29.316406 41.582031 -28.0625 50.875 -30.15625 C 60.175781 -32.25 69.703125 -35.929688 79.453125 -41.203125 C 89.210938 -46.484375 97.90625 -51.507812 105.53125 -56.28125 C 107.875 -57.539062 109.96875 -58.835938 111.8125 -60.171875 Z M 50.75 -84.421875 C 49.664062 -85.929688 47.863281 -86.539062 45.34375 -86.25 C 42.832031 -85.957031 40.257812 -85.179688 37.625 -83.921875 C 34.988281 -82.660156 32.6875 -81.335938 30.71875 -79.953125 C 28.75 -78.578125 27.890625 -77.597656 28.140625 -77.015625 C 28.140625 -76.679688 28.367188 -76.09375 28.828125 -75.25 C 29.296875 -74.414062 29.988281 -73.535156 30.90625 -72.609375 C 31.820312 -71.691406 33.054688 -71.046875 34.609375 -70.671875 C 36.160156 -70.296875 38.148438 -70.398438 40.578125 -70.984375 C 44.429688 -72.066406 47.128906 -73.488281 48.671875 -75.25 C 50.222656 -77.007812 51.101562 -78.75 51.3125 -80.46875 C 51.53125 -82.1875 51.34375 -83.503906 50.75 -84.421875 Z M 50.75 -84.421875 "/>
            </g>
        </g>
        <g style="fill:#084887;fill-opacity:1;">
            <g transform="translate(538.602253, 540.826106)">
                <path style="stroke:none"
                      d="M 32.28125 -91.96875 C 43.175781 -92.46875 50.675781 -87.398438 54.78125 -76.765625 C 57.707031 -68.972656 58.519531 -60.65625 57.21875 -51.8125 C 55.925781 -42.976562 52.976562 -35.632812 48.375 -29.78125 C 43.925781 -24.414062 38.519531 -20.957031 32.15625 -19.40625 C 25.789062 -17.863281 19.570312 -18.367188 13.5 -20.921875 C 7.425781 -23.472656 2.632812 -28.519531 -0.875 -36.0625 C -3.644531 -42.757812 -4.566406 -49.5 -3.640625 -56.28125 C -2.890625 -61.976562 -1.300781 -67.507812 1.125 -72.875 C 3.894531 -79.488281 8 -84.28125 13.4375 -87.25 C 18.882812 -90.226562 25.164062 -91.800781 32.28125 -91.96875 Z M 27.390625 -28.390625 C 31.992188 -31.148438 35.300781 -35.148438 37.3125 -40.390625 C 39.320312 -45.628906 40.429688 -51.238281 40.640625 -57.21875 C 40.847656 -63.207031 40.367188 -68.800781 39.203125 -74 C 37.609375 -81.195312 35.46875 -84.734375 32.78125 -84.609375 C 30.101562 -84.484375 27.34375 -82.078125 24.5 -77.390625 C 21.65625 -72.703125 19.160156 -67.046875 17.015625 -60.421875 C 14.878906 -53.804688 13.582031 -47.460938 13.125 -41.390625 C 12.664062 -35.316406 13.503906 -30.898438 15.640625 -28.140625 C 17.773438 -25.378906 21.691406 -25.460938 27.390625 -28.390625 Z M 27.390625 -28.390625 "/>
            </g>
        </g>
        <g style="fill:#084887;fill-opacity:1;">
            <g transform="translate(607.86789, 540.826106)">
                <path style="stroke:none"
                      d="M 85.6875 -47.734375 C 84.757812 -42.378906 82.914062 -37.398438 80.15625 -32.796875 C 72.945312 -21.566406 62.726562 -17.125 49.5 -19.46875 C 44.300781 -20.8125 40.96875 -23.367188 39.5 -27.140625 C 38.039062 -30.910156 38.773438 -35.097656 41.703125 -39.703125 C 45.804688 -45.054688 50.875 -49.035156 56.90625 -51.640625 C 59.164062 -52.722656 61.21875 -53.515625 63.0625 -54.015625 C 63.988281 -54.441406 65.078125 -54.820312 66.328125 -55.15625 C 68.765625 -56.488281 70.066406 -59.039062 70.234375 -62.8125 C 70.398438 -66.582031 69.519531 -70.351562 67.59375 -74.125 C 65.664062 -77.894531 62.984375 -80.46875 59.546875 -81.84375 C 56.117188 -83.226562 52.015625 -81.992188 47.234375 -78.140625 C 42.628906 -73.867188 39.15625 -68.882812 36.8125 -63.1875 C 31.28125 -51.800781 27.46875 -39.828125 25.375 -27.265625 C 21.6875 -5.148438 19.132812 16.960938 17.71875 39.078125 C 17.125 49.378906 16.117188 59.59375 14.703125 69.71875 C 14.109375 74 13.644531 78.359375 13.3125 82.796875 C 13.0625 84.210938 12.6875 85.675781 12.1875 87.1875 C 11.4375 89.945312 9.382812 91.117188 6.03125 90.703125 C 2.59375 90.535156 0.75 88.988281 0.5 86.0625 C 0.332031 82.957031 0.332031 79.816406 0.5 76.640625 C 0.5 75.878906 0.5 75.25 0.5 74.75 C 0.75 70.894531 0.957031 67 1.125 63.0625 C 1.289062 56.113281 1.460938 49.207031 1.640625 42.34375 C 2.054688 14.363281 1.882812 -13.820312 1.125 -42.21875 C 0.957031 -52.851562 0.75 -63.363281 0.5 -73.75 C 0.5 -74.832031 0.5 -75.921875 0.5 -77.015625 C 0.164062 -80.703125 0.375 -84.300781 1.125 -87.8125 C 1.882812 -91.332031 4.191406 -93.34375 8.046875 -93.84375 C 12.066406 -94.257812 14.535156 -92.414062 15.453125 -88.3125 C 15.453125 -87.976562 15.453125 -87.601562 15.453125 -87.1875 C 16.796875 -79.3125 18.007812 -68.925781 19.09375 -56.03125 C 22.03125 -64.65625 25.71875 -71.601562 30.15625 -76.875 C 34.59375 -82.15625 39.828125 -86.054688 45.859375 -88.578125 C 50.878906 -90.835938 56.046875 -91.734375 61.359375 -91.265625 C 66.679688 -90.804688 71.519531 -88.628906 75.875 -84.734375 C 80.238281 -80.835938 83.210938 -75.039062 84.796875 -67.34375 C 85.554688 -63.988281 85.851562 -57.453125 85.6875 -47.734375 Z M 58.046875 -27.515625 C 61.390625 -29.359375 63.984375 -31.804688 65.828125 -34.859375 C 67.671875 -37.921875 68.632812 -40.601562 68.71875 -42.90625 C 68.800781 -45.207031 67.835938 -46.066406 65.828125 -45.484375 C 60.640625 -43.472656 57.082031 -40.851562 55.15625 -37.625 C 53.226562 -34.40625 52.578125 -31.640625 53.203125 -29.328125 C 53.828125 -27.023438 55.441406 -26.421875 58.046875 -27.515625 Z M 58.046875 -27.515625 "/>
            </g>
        </g>
        <g style="fill:#084887;fill-opacity:1;">
            <g transform="translate(707.787807, 540.826106)">
                <path style="stroke:none"
                      d="M 32.28125 -91.96875 C 43.175781 -92.46875 50.675781 -87.398438 54.78125 -76.765625 C 57.707031 -68.972656 58.519531 -60.65625 57.21875 -51.8125 C 55.925781 -42.976562 52.976562 -35.632812 48.375 -29.78125 C 43.925781 -24.414062 38.519531 -20.957031 32.15625 -19.40625 C 25.789062 -17.863281 19.570312 -18.367188 13.5 -20.921875 C 7.425781 -23.472656 2.632812 -28.519531 -0.875 -36.0625 C -3.644531 -42.757812 -4.566406 -49.5 -3.640625 -56.28125 C -2.890625 -61.976562 -1.300781 -67.507812 1.125 -72.875 C 3.894531 -79.488281 8 -84.28125 13.4375 -87.25 C 18.882812 -90.226562 25.164062 -91.800781 32.28125 -91.96875 Z M 27.390625 -28.390625 C 31.992188 -31.148438 35.300781 -35.148438 37.3125 -40.390625 C 39.320312 -45.628906 40.429688 -51.238281 40.640625 -57.21875 C 40.847656 -63.207031 40.367188 -68.800781 39.203125 -74 C 37.609375 -81.195312 35.46875 -84.734375 32.78125 -84.609375 C 30.101562 -84.484375 27.34375 -82.078125 24.5 -77.390625 C 21.65625 -72.703125 19.160156 -67.046875 17.015625 -60.421875 C 14.878906 -53.804688 13.582031 -47.460938 13.125 -41.390625 C 12.664062 -35.316406 13.503906 -30.898438 15.640625 -28.140625 C 17.773438 -25.378906 21.691406 -25.460938 27.390625 -28.390625 Z M 27.390625 -28.390625 "/>
            </g>
        </g>
        <g style="fill:#084887;fill-opacity:1;">
            <g transform="translate(777.053489, 540.826106)">
                <path style="stroke:none"
                      d="M 69.09375 -340.71875 C 79.226562 -339.375 88.019531 -332.210938 95.46875 -319.234375 C 102.925781 -306.253906 107.992188 -289.503906 110.671875 -268.984375 C 113.359375 -248.460938 112.484375 -226.265625 108.046875 -202.390625 C 103.609375 -178.523438 94.582031 -155.03125 80.96875 -131.90625 C 67.363281 -108.789062 48.117188 -88.019531 23.234375 -69.59375 C 23.992188 -59.96875 25.460938 -50.460938 27.640625 -41.078125 C 29.816406 -31.703125 33.039062 -24.25 37.3125 -18.71875 C 41.164062 -14.28125 45.726562 -12.898438 51 -14.578125 C 56.28125 -16.253906 61.578125 -19.75 66.890625 -25.0625 C 72.210938 -30.382812 77.050781 -36.226562 81.40625 -42.59375 C 85.757812 -48.957031 88.941406 -54.523438 90.953125 -59.296875 C 92.628906 -62.816406 94.285156 -64.578125 95.921875 -64.578125 C 97.554688 -64.578125 97.992188 -62.816406 97.234375 -59.296875 C 94.304688 -50.835938 90.726562 -42.691406 86.5 -34.859375 C 82.269531 -27.023438 76.765625 -19.96875 69.984375 -13.6875 C 64.785156 -8.75 58.585938 -5.523438 51.390625 -4.015625 C 39.992188 -2.335938 30.734375 -5.375 23.609375 -13.125 C 16.492188 -20.875 11.222656 -31.953125 7.796875 -46.359375 C 5.523438 -55.398438 3.972656 -68.90625 3.140625 -86.875 C 2.304688 -104.84375 2.304688 -125.046875 3.140625 -147.484375 C 3.972656 -169.929688 5.875 -192.671875 8.84375 -215.703125 C 11.820312 -238.742188 15.882812 -259.894531 21.03125 -279.15625 C 26.1875 -298.414062 32.722656 -313.71875 40.640625 -325.0625 C 48.554688 -336.414062 58.039062 -341.632812 69.09375 -340.71875 Z M 23.5 -84.796875 C 45.601562 -105.234375 62.179688 -126.820312 73.234375 -149.5625 C 84.296875 -172.300781 91.289062 -194.597656 94.21875 -216.453125 C 97.15625 -238.316406 97.382812 -258.039062 94.90625 -275.625 C 92.4375 -293.21875 88.582031 -307.039062 83.34375 -317.09375 C 78.113281 -327.144531 72.988281 -331.710938 67.96875 -330.796875 C 61.6875 -328.953125 56.15625 -322.5 51.375 -311.4375 C 46.601562 -300.382812 42.5625 -286.421875 39.25 -269.546875 C 35.945312 -252.671875 33.1875 -234.640625 30.96875 -215.453125 C 28.75 -196.273438 27.03125 -177.703125 25.8125 -159.734375 C 24.601562 -141.773438 23.828125 -126.113281 23.484375 -112.75 C 23.148438 -99.394531 23.15625 -90.078125 23.5 -84.796875 Z M 23.5 -84.796875 "/>
            </g>
        </g>
        <g style="fill:#084887;fill-opacity:1;">
            <g transform="translate(868.179125, 540.826106)">
                <path style="stroke:none"
                      d="M 111.8125 -60.171875 C 113.488281 -61.097656 115.164062 -61.789062 116.84375 -62.25 C 118.519531 -62.707031 119.585938 -62.664062 120.046875 -62.125 C 120.503906 -61.582031 119.8125 -60.179688 117.96875 -57.921875 C 112.019531 -51.296875 105.046875 -45.257812 97.046875 -39.8125 C 89.046875 -34.375 80.898438 -29.726562 72.609375 -25.875 C 65.992188 -22.945312 59 -20.601562 51.625 -18.84375 C 44.257812 -17.082031 36.972656 -16.703125 29.765625 -17.703125 C 22.566406 -18.710938 16.035156 -21.898438 10.171875 -27.265625 C 3.140625 -34.296875 -0.6875 -43.234375 -1.3125 -54.078125 C -1.945312 -64.929688 0.582031 -74.039062 6.28125 -81.40625 C 13.820312 -89.863281 23.347656 -95.304688 34.859375 -97.734375 C 46.378906 -100.171875 56.742188 -98.332031 65.953125 -92.21875 C 70.390625 -89.113281 72.191406 -85.488281 71.359375 -81.34375 C 70.523438 -77.195312 68.304688 -73.320312 64.703125 -69.71875 C 61.097656 -66.125 57.078125 -63.40625 52.640625 -61.5625 C 46.023438 -58.96875 40.097656 -58.441406 34.859375 -59.984375 C 29.628906 -61.535156 25.546875 -63.609375 22.609375 -66.203125 C 20.515625 -65.453125 19.21875 -62.523438 18.71875 -57.421875 C 17.375 -47.785156 20.390625 -39.953125 27.765625 -33.921875 C 33.878906 -29.316406 41.582031 -28.0625 50.875 -30.15625 C 60.175781 -32.25 69.703125 -35.929688 79.453125 -41.203125 C 89.210938 -46.484375 97.90625 -51.507812 105.53125 -56.28125 C 107.875 -57.539062 109.96875 -58.835938 111.8125 -60.171875 Z M 50.75 -84.421875 C 49.664062 -85.929688 47.863281 -86.539062 45.34375 -86.25 C 42.832031 -85.957031 40.257812 -85.179688 37.625 -83.921875 C 34.988281 -82.660156 32.6875 -81.335938 30.71875 -79.953125 C 28.75 -78.578125 27.890625 -77.597656 28.140625 -77.015625 C 28.140625 -76.679688 28.367188 -76.09375 28.828125 -75.25 C 29.296875 -74.414062 29.988281 -73.535156 30.90625 -72.609375 C 31.820312 -71.691406 33.054688 -71.046875 34.609375 -70.671875 C 36.160156 -70.296875 38.148438 -70.398438 40.578125 -70.984375 C 44.429688 -72.066406 47.128906 -73.488281 48.671875 -75.25 C 50.222656 -77.007812 51.101562 -78.75 51.3125 -80.46875 C 51.53125 -82.1875 51.34375 -83.503906 50.75 -84.421875 Z M 50.75 -84.421875 "/>
            </g>
        </g>
        <g style="fill:#084887;fill-opacity:1;">
            <g transform="translate(976.39079, 540.826106)">
                <path style="stroke:none"
                      d="M 151.140625 -150.515625 C 154.828125 -149.585938 156.207031 -148.285156 155.28125 -146.609375 C 154.363281 -145.191406 152.0625 -144.398438 148.375 -144.234375 C 142.507812 -143.804688 136.726562 -143.507812 131.03125 -143.34375 C 127.6875 -143.34375 124.253906 -143.34375 120.734375 -143.34375 C 117.046875 -143.175781 113.273438 -143.007812 109.421875 -142.84375 L 74.875 -142.46875 L 74.375 -126.265625 C 74.125 -120.148438 73.832031 -112.78125 73.5 -104.15625 C 72.40625 -86.226562 71.859375 -67.882812 71.859375 -49.125 C 72.191406 -34.71875 73.953125 -23.285156 77.140625 -14.828125 C 78.390625 -10.972656 79.664062 -8.207031 80.96875 -6.53125 C 82.269531 -4.851562 83.757812 -3.304688 85.4375 -1.890625 C 86.851562 -0.710938 88.691406 1.046875 90.953125 3.390625 C 93.890625 6.742188 94.625 8.691406 93.15625 9.234375 C 91.6875 9.773438 88.898438 9.585938 84.796875 8.671875 C 75.585938 6.660156 68.632812 2.285156 63.9375 -4.453125 C 59.25 -11.203125 56.070312 -19.097656 54.40625 -28.140625 C 51.632812 -20.773438 48.175781 -15.519531 44.03125 -12.375 C 39.882812 -9.226562 35.59375 -7.65625 31.15625 -7.65625 C 23.113281 -7.65625 16.726562 -10.039062 12 -14.8125 C 7.269531 -19.59375 3.898438 -25.898438 1.890625 -33.734375 C -0.117188 -41.566406 -0.957031 -50.085938 -0.625 -59.296875 C -0.375 -69.597656 -0.0820312 -80.023438 0.25 -90.578125 C 0.832031 -107.660156 1.671875 -124.789062 2.765625 -141.96875 C -7.367188 -141.800781 -17.253906 -141.507812 -26.890625 -141.09375 C -38.441406 -140.75 -45.976562 -141.125 -49.5 -142.21875 C -52.257812 -143.132812 -53.453125 -144.515625 -53.078125 -146.359375 C -52.703125 -148.203125 -50.046875 -149.5 -45.109375 -150.25 C -42.835938 -150.425781 -39.546875 -150.515625 -35.234375 -150.515625 C -30.921875 -150.515625 -26.546875 -150.515625 -22.109375 -150.515625 C -18.421875 -150.515625 -15.40625 -150.597656 -13.0625 -150.765625 C -9.375 -150.765625 -5.773438 -150.765625 -2.265625 -150.765625 C -0.421875 -150.765625 1.421875 -150.765625 3.265625 -150.765625 C 3.429688 -152.265625 3.515625 -153.769531 3.515625 -155.28125 C 3.765625 -157.125 3.890625 -158.96875 3.890625 -160.8125 C 4.222656 -165.75 4.472656 -170.609375 4.640625 -175.390625 C 4.816406 -177.984375 5.03125 -180.578125 5.28125 -183.171875 C 5.28125 -187.023438 6.203125 -190.628906 8.046875 -193.984375 C 10.222656 -196.910156 12.984375 -198 16.328125 -197.25 C 19.097656 -196.488281 20.648438 -194.5625 20.984375 -191.46875 C 21.316406 -186.6875 21.484375 -181.867188 21.484375 -177.015625 C 21.484375 -174.253906 21.484375 -171.488281 21.484375 -168.71875 C 21.484375 -165.625 21.484375 -162.523438 21.484375 -159.421875 L 21.234375 -151.140625 C 21.816406 -151.140625 22.484375 -151.140625 23.234375 -151.140625 C 23.742188 -151.140625 24.289062 -151.140625 24.875 -151.140625 C 35.007812 -151.304688 45.144531 -151.390625 55.28125 -151.390625 C 55.613281 -151.390625 55.988281 -151.390625 56.40625 -151.390625 C 56.40625 -153.234375 56.488281 -155.078125 56.65625 -156.921875 C 56.820312 -159.847656 56.988281 -162.863281 57.15625 -165.96875 C 57.582031 -170.988281 57.878906 -175.96875 58.046875 -180.90625 C 58.210938 -183.675781 58.378906 -186.359375 58.546875 -188.953125 C 58.546875 -192.972656 59.550781 -196.660156 61.5625 -200.015625 C 63.65625 -203.109375 66.421875 -204.195312 69.859375 -203.28125 C 72.867188 -202.601562 74.539062 -200.675781 74.875 -197.5 C 75.039062 -192.550781 75.207031 -187.566406 75.375 -182.546875 C 75.375 -179.785156 75.375 -176.9375 75.375 -174 C 75.207031 -170.90625 75.207031 -167.679688 75.375 -164.328125 L 75.125 -151.390625 C 86.9375 -151.554688 98.832031 -151.554688 110.8125 -151.390625 C 116.675781 -151.390625 122.578125 -151.390625 128.515625 -151.390625 C 131.785156 -151.554688 135.015625 -151.640625 138.203125 -151.640625 C 142.972656 -151.640625 147.285156 -151.265625 151.140625 -150.515625 Z M 53.265625 -93.09375 C 54.023438 -109.675781 54.863281 -126.050781 55.78125 -142.21875 C 50.414062 -142.21875 44.507812 -142.132812 38.0625 -141.96875 C 32.539062 -141.96875 26.847656 -141.96875 20.984375 -141.96875 L 20.484375 -122.359375 C 20.484375 -116.421875 20.1875 -109.304688 19.59375 -101.015625 C 18.507812 -83.753906 18.050781 -66.078125 18.21875 -47.984375 C 18.550781 -35.421875 20.203125 -27.128906 23.171875 -23.109375 C 26.148438 -19.097656 29.609375 -18.140625 33.546875 -20.234375 C 37.484375 -22.328125 41.207031 -26.597656 44.71875 -33.046875 C 48.238281 -39.492188 50.753906 -47.070312 52.265625 -55.78125 C 52.429688 -57.625 52.515625 -59.34375 52.515625 -60.9375 C 52.847656 -71.65625 53.097656 -82.375 53.265625 -93.09375 Z M 53.265625 -93.09375 "/>
            </g>
        </g>
        <g style="fill:#084887;fill-opacity:1;">
            <g transform="translate(1068.019005, 540.826106)">
                <path style="stroke:none"
                      d="M 32.28125 -91.96875 C 43.175781 -92.46875 50.675781 -87.398438 54.78125 -76.765625 C 57.707031 -68.972656 58.519531 -60.65625 57.21875 -51.8125 C 55.925781 -42.976562 52.976562 -35.632812 48.375 -29.78125 C 43.925781 -24.414062 38.519531 -20.957031 32.15625 -19.40625 C 25.789062 -17.863281 19.570312 -18.367188 13.5 -20.921875 C 7.425781 -23.472656 2.632812 -28.519531 -0.875 -36.0625 C -3.644531 -42.757812 -4.566406 -49.5 -3.640625 -56.28125 C -2.890625 -61.976562 -1.300781 -67.507812 1.125 -72.875 C 3.894531 -79.488281 8 -84.28125 13.4375 -87.25 C 18.882812 -90.226562 25.164062 -91.800781 32.28125 -91.96875 Z M 27.390625 -28.390625 C 31.992188 -31.148438 35.300781 -35.148438 37.3125 -40.390625 C 39.320312 -45.628906 40.429688 -51.238281 40.640625 -57.21875 C 40.847656 -63.207031 40.367188 -68.800781 39.203125 -74 C 37.609375 -81.195312 35.46875 -84.734375 32.78125 -84.609375 C 30.101562 -84.484375 27.34375 -82.078125 24.5 -77.390625 C 21.65625 -72.703125 19.160156 -67.046875 17.015625 -60.421875 C 14.878906 -53.804688 13.582031 -47.460938 13.125 -41.390625 C 12.664062 -35.316406 13.503906 -30.898438 15.640625 -28.140625 C 17.773438 -25.378906 21.691406 -25.460938 27.390625 -28.390625 Z M 27.390625 -28.390625 "/>
            </g>
        </g>
        <g style="fill:#084887;fill-opacity:1;">
            <g transform="translate(1137.292335, 540.826106)">
                <path style="stroke:none" d=""/>
            </g>
        </g>
    </g>
</svg>