<?xml version="1.0" standalone="no"?>
<!DOCTYPE svg PUBLIC "-//W3C//DTD SVG 20010904//EN"
 "http://www.w3.org/TR/2001/REC-SVG-20010904/DTD/svg10.dtd">
<svg version="1.0" xmlns="http://www.w3.org/2000/svg"
 width="512.000000pt" height="512.000000pt" viewBox="0 0 512.000000 512.000000"
 preserveAspectRatio="xMidYMid meet">
<metadata>
Created by potrace 1.14, written by Peter Selinger 2001-2017
</metadata>
<g transform="translate(0.000000,512.000000) scale(0.100000,-0.100000)"
fill="#000000" stroke="none">
<path d="M0 2560 l0 -2560 2560 0 2560 0 0 2560 0 2560 -2560 0 -2560 0 0
-2560z m1500 210 l0 -980 375 0 375 0 0 -210 0 -210 -665 0 -665 0 0 1190 0
1190 290 0 290 0 0 -980z m2150 956 c105 -25 205 -68 275 -121 199 -149 286
-421 263 -825 -23 -396 -192 -638 -503 -719 -101 -27 -257 -41 -452 -41 l-153
0 0 -325 0 -325 -290 0 -290 0 0 1191 0 1190 538 -4 c466 -3 547 -6 612 -21z"/>
<path d="M3080 2891 l0 -441 133 0 c190 0 263 27 322 119 53 85 79 264 64 441
-10 118 -37 194 -86 242 -59 57 -106 70 -280 76 l-153 4 0 -441z"/>
</g>
</svg>
